<?xml version="1.0" standalone="no"?>
<!DOCTYPE svg PUBLIC "-//W3C//DTD SVG 20010904//EN"
 "http://www.w3.org/TR/2001/REC-SVG-20010904/DTD/svg10.dtd">
<svg version="1.0" xmlns="http://www.w3.org/2000/svg"
 width="1110.000000pt" height="1110.000000pt" viewBox="0 0 1110.000000 1110.000000"
 preserveAspectRatio="xMidYMid meet">

<g transform="translate(0.000000,1110.000000) scale(0.100000,-0.100000)"
fill="#000000" stroke="none">
<path d="M5395 9957 c-83 -46 -375 -211 -650 -367 -275 -156 -598 -339 -717
-407 -120 -68 -316 -178 -435 -246 -120 -68 -324 -183 -453 -257 -129 -73
-500 -283 -824 -467 -323 -184 -602 -341 -619 -348 -28 -12 -30 -16 -33 -71
-1 -33 -7 -531 -13 -1109 -7 -577 -16 -1394 -21 -1815 -6 -421 -10 -934 -10
-1141 0 -345 1 -377 17 -391 22 -20 196 -125 908 -548 99 -59 311 -185 470
-280 160 -95 515 -306 790 -468 275 -162 631 -372 790 -467 160 -95 420 -249
579 -344 169 -100 299 -171 314 -171 30 0 533 283 2332 1310 1313 751 1584
909 1592 929 6 17 15 1560 22 3645 l2 829 -35 14 c-19 8 -155 86 -301 173
-146 86 -580 343 -965 570 -385 227 -785 463 -890 525 -811 480 -1675 985
-1687 985 -7 0 -81 -37 -163 -83z m137 -374 c-2 -230 -7 -521 -10 -648 l-7
-230 -65 -13 c-36 -8 -450 -99 -920 -204 -1078 -239 -1247 -277 -1995 -442
-335 -74 -630 -139 -654 -145 -66 -15 -45 0 229 154 252 142 671 380 1190 675
318 180 1383 785 1645 933 244 138 535 306 558 322 12 8 24 15 27 15 3 0 4
-188 2 -417z m99 387 c20 -16 21 -19 7 -20 -26 0 -24 -40 2 -40 13 0 20 7 20
20 0 11 2 20 5 20 3 0 164 -94 358 -209 193 -114 514 -304 712 -421 198 -117
421 -249 495 -293 74 -44 182 -108 240 -142 58 -34 283 -167 500 -295 671
-396 818 -483 1035 -610 215 -126 263 -159 215 -146 -155 41 -1141 282 -1770
432 -173 41 -323 77 -332 80 -9 3 -18 17 -20 32 -4 35 -43 44 -53 13 -3 -12
-10 -21 -15 -21 -4 0 -167 38 -361 85 -560 136 -1062 257 -1088 263 l-24 5 6
166 c4 91 10 376 14 634 5 358 9 467 19 467 6 0 22 -9 35 -20z m-145 -1315
c-3 -8 -105 -184 -227 -392 -248 -422 -526 -895 -793 -1353 -98 -168 -203
-347 -234 -398 l-55 -93 -26 23 c-14 13 -75 70 -135 126 -158 149 -562 484
-696 577 -218 152 -261 188 -255 212 6 27 -25 49 -43 31 -14 -14 -59 26 -218
191 -211 219 -344 311 -451 311 -46 0 -58 -4 -92 -35 -80 -72 -99 -215 -61
-442 41 -236 189 -727 289 -955 28 -64 51 -123 51 -130 0 -8 4 -18 9 -24 5 -5
39 -81 74 -169 36 -88 93 -225 127 -305 34 -80 95 -230 137 -335 41 -104 90
-219 108 -255 37 -73 155 -255 222 -342 l44 -57 -92 -158 c-157 -272 -326
-567 -344 -602 -9 -18 -20 -29 -25 -25 -8 8 -90 289 -351 1198 -98 343 -107
380 -92 391 18 14 8 39 -13 31 -9 -4 -19 14 -33 62 -11 37 -81 279 -156 537
-74 259 -170 587 -211 730 -83 285 -210 713 -220 738 -4 12 2 20 20 27 30 11
33 22 10 41 -12 10 -20 10 -34 1 -12 -7 -21 -8 -25 -2 -3 6 5 14 19 20 22 8
1069 242 1771 396 138 30 278 61 312 69 81 20 90 19 96 -6 9 -32 51 -22 55 14
2 15 5 27 7 27 10 0 1403 312 1449 324 70 19 89 19 82 1z m476 -74 c200 -48
433 -105 518 -126 202 -48 418 -100 1195 -290 981 -240 1637 -395 1666 -395 9
0 26 -8 37 -17 22 -20 38 38 -183 -658 -31 -99 -97 -306 -145 -460 -49 -154
-183 -581 -300 -950 -317 -1008 -460 -1465 -502 -1607 -12 -43 -24 -78 -28
-78 -3 0 -16 22 -29 48 -32 66 -358 649 -387 694 -13 21 -24 42 -24 47 0 5 36
76 79 158 43 81 99 200 124 263 51 128 129 391 151 510 31 160 48 184 355 490
182 182 292 299 322 345 190 287 260 656 185 979 -15 66 -41 152 -57 192 -49
118 -77 124 -98 21 -16 -81 -59 -173 -97 -208 -16 -15 -58 -41 -94 -58 -36
-18 -93 -56 -128 -85 -48 -40 -85 -62 -150 -85 -93 -33 -173 -81 -237 -141
-22 -21 -49 -40 -60 -42 -11 -2 -21 -12 -24 -23 -2 -11 -22 -40 -45 -65 -50
-54 -90 -119 -107 -177 -7 -24 -15 -43 -18 -43 -3 0 -17 19 -30 43 -65 117
-150 195 -253 232 -27 10 -48 22 -48 26 0 5 -10 9 -22 9 -13 0 -45 7 -72 15
-82 25 -191 29 -287 11 -124 -23 -136 -22 -213 29 -37 24 -110 60 -162 80 -51
21 -125 59 -163 86 -64 45 -154 139 -181 189 -6 11 -17 20 -25 20 -12 0 -15
-16 -15 -77 0 -86 17 -177 49 -268 25 -69 25 -75 8 -75 -12 0 -45 56 -467 800
-118 206 -258 453 -312 548 -54 95 -98 175 -98 177 0 8 -11 10 372 -84z m-222
-267 c103 -181 330 -583 505 -894 175 -311 412 -729 526 -930 114 -201 279
-493 368 -649 88 -156 161 -288 161 -292 0 -5 -19 -18 -42 -30 -24 -12 -90
-52 -148 -89 -136 -87 -202 -120 -331 -164 -96 -33 -116 -36 -215 -36 -259 0
-609 68 -974 191 -371 123 -511 200 -859 469 -90 70 -511 474 -511 491 0 4
101 180 223 391 123 211 331 568 462 793 131 226 291 500 355 610 64 110 152
262 196 338 43 75 83 136 88 134 6 -2 94 -152 196 -333z m-3292 -486 c66 -31
140 -94 347 -298 202 -198 282 -264 490 -405 189 -128 581 -452 783 -647 l92
-89 -27 -47 c-27 -48 -74 -124 -78 -130 -2 -2 -47 32 -101 76 -134 106 -316
236 -579 413 -236 158 -317 224 -367 297 -55 82 -164 204 -259 291 -107 99
-207 220 -270 328 -78 132 -129 225 -129 235 0 11 45 0 98 -24z m-89 -38 c142
-269 186 -328 393 -539 112 -115 177 -190 243 -286 94 -136 161 -222 228 -292
23 -24 38 -45 35 -48 -9 -9 -158 95 -293 204 -254 204 -485 453 -594 638 -90
155 -133 313 -95 354 27 30 55 20 83 -31z m6545 -122 c51 -144 61 -210 61
-398 -1 -157 -4 -185 -28 -278 -39 -147 -87 -269 -143 -364 -40 -67 -95 -130
-295 -333 -135 -137 -266 -278 -292 -313 l-46 -62 -6 57 c-22 201 -38 289 -66
378 -38 122 -60 170 -116 258 -59 93 -71 145 -48 222 27 95 52 134 144 229
114 116 185 166 308 214 78 30 116 52 169 97 38 32 96 70 129 85 92 41 145
112 175 233 7 26 16 47 20 47 4 0 20 -33 34 -72z m-7160 -144 c50 -181 345
-1212 472 -1653 47 -162 83 -303 81 -313 -3 -10 1 -24 8 -32 16 -15 25 -45
180 -586 64 -223 150 -522 191 -664 41 -142 73 -264 71 -270 -3 -6 -87 -58
-188 -115 -283 -161 -767 -440 -837 -483 -34 -21 -65 -38 -68 -38 -3 0 -3 116
1 258 3 141 10 853 15 1582 11 1516 21 2482 27 2477 2 -2 23 -75 47 -163z
m496 122 c0 -8 15 -51 34 -96 24 -55 35 -97 34 -128 -1 -68 35 -258 76 -402
83 -291 183 -600 222 -686 29 -65 134 -347 134 -362 0 -11 -27 32 -33 53 -3
11 -24 67 -47 125 -23 58 -66 170 -96 249 -30 79 -64 162 -76 185 -33 64 -122
344 -168 526 -57 229 -63 268 -46 289 8 11 8 15 -2 18 -6 3 -10 8 -8 12 3 4 1
25 -5 47 -10 43 -39 177 -39 182 0 1 5 2 10 2 6 0 10 -6 10 -14z m7155 -248
c-3 -101 -7 -1044 -10 -2097 -5 -1810 -6 -1914 -22 -1927 -17 -12 -17 -13 0
-19 9 -4 17 -16 17 -27 0 -18 -2 -18 -32 5 -18 14 -179 110 -358 215 -179 104
-417 244 -530 310 -120 70 -204 126 -203 133 1 8 38 124 81 259 78 238 243
759 344 1085 27 88 57 168 66 178 8 10 17 37 18 60 1 23 25 112 52 197 28 85
80 250 116 365 36 116 117 377 181 580 287 916 271 865 280 865 3 0 3 -82 0
-182z m-2868 13 c79 -86 161 -142 250 -171 87 -29 116 -44 176 -91 57 -45 77
-47 231 -24 107 16 208 9 287 -20 24 -9 68 -25 98 -36 131 -47 212 -125 261
-251 17 -43 30 -85 30 -93 0 -9 13 -54 30 -101 48 -135 56 -225 36 -374 -9
-69 -21 -129 -25 -133 -5 -5 -20 11 -34 36 -51 86 -159 151 -397 237 -80 29
-187 72 -238 96 -174 81 -404 248 -505 366 -95 112 -196 287 -235 408 -17 52
-41 172 -42 213 0 16 15 4 77 -62z m-4018 -218 c35 -43 43 -59 92 -208 58
-176 61 -187 41 -183 -9 2 -17 10 -18 18 -1 8 -2 28 -2 43 -1 16 -6 26 -11 23
-5 -4 -7 4 -4 16 3 17 2 19 -5 9 -7 -10 -14 0 -26 42 -9 30 -16 63 -16 74 0
28 -11 63 -20 63 -8 0 -3 -82 6 -110 3 -9 2 -11 -4 -5 -5 6 -19 46 -32 90 -12
43 -36 111 -51 150 -32 77 -32 77 50 -22z m-101 28 c9 -27 9 -31 -1 -23 -7 6
-14 23 -15 38 -3 33 1 30 16 -15z m52 -165 c0 -6 -7 -1 -15 10 -8 10 -14 26
-14 34 0 16 28 -28 29 -44z m4084 -20 c91 -163 226 -308 406 -436 133 -95 276
-168 482 -244 223 -83 286 -113 290 -140 2 -15 11 -21 31 -22 15 -1 35 -9 46
-18 31 -28 74 -117 75 -155 1 -76 -97 -242 -221 -372 -78 -82 -116 -105 -200
-125 -42 -10 -55 -9 -70 1 -14 11 -16 16 -5 26 23 24 15 42 -16 36 -26 -5 -31
-1 -52 36 -32 57 -667 1182 -752 1332 -37 66 -68 126 -68 133 0 28 20 8 54
-52z m-3887 2 c55 -59 87 -144 162 -443 115 -454 306 -825 635 -1234 l60 -74
-21 -36 c-11 -19 -25 -37 -30 -38 -20 -7 -193 244 -327 475 -190 327 -328 671
-411 1022 -37 155 -55 216 -85 290 -16 39 -26 70 -21 70 4 0 21 -15 38 -32z
m-163 -105 c4 -21 9 -47 12 -58 4 -17 3 -18 -5 -4 -6 9 -12 26 -14 38 -2 11
-6 24 -10 27 -10 10 -9 34 2 34 5 0 12 -17 15 -37z m355 -76 c54 -50 88 -119
156 -318 80 -235 200 -536 265 -664 58 -113 188 -326 261 -426 40 -56 40 -57
24 -88 -9 -18 -20 -29 -25 -26 -6 4 -38 43 -72 88 -59 77 -80 105 -170 232
-64 92 -158 252 -202 347 -38 81 -58 127 -131 293 -29 66 -95 291 -95 325 -1
19 -7 51 -14 70 -30 80 -86 240 -86 247 0 4 11 -3 24 -17 12 -14 42 -42 65
-63z m-346 -8 c5 -4 4 -10 -2 -13 -6 -4 -15 4 -21 19 -14 36 -11 56 3 25 6
-14 15 -28 20 -31z m87 -6 c8 -21 15 -43 16 -50 1 -7 9 -34 17 -60 8 -26 20
-68 28 -93 7 -25 16 -50 21 -56 4 -6 6 -13 3 -16 -3 -2 2 -5 10 -5 8 0 15 10
16 21 0 12 7 -1 15 -28 9 -26 13 -50 11 -53 -6 -5 34 -122 96 -283 77 -200
272 -571 404 -770 85 -127 178 -256 193 -265 5 -3 10 -13 10 -22 0 -26 -32 8
-124 132 -212 284 -376 561 -472 795 -25 63 -58 142 -71 175 -87 210 -102 254
-166 475 -34 116 -39 140 -29 140 4 0 14 -17 22 -37z m1105 -392 c54 -42 125
-100 158 -130 58 -54 147 -168 147 -189 0 -14 -61 -112 -69 -112 -3 1 -33 35
-66 77 -73 93 -216 238 -311 318 -186 156 -260 225 -339 313 -47 52 -85 98
-85 103 0 11 441 -286 565 -380z m-1174 326 c10 -23 24 -67 34 -97 24 -79 84
-241 155 -419 33 -84 59 -156 56 -158 -3 -3 -11 10 -19 28 -8 19 -38 88 -67
154 -41 95 -190 510 -190 530 0 3 3 5 8 5 4 0 14 -19 23 -43z m157 -77 c7 -30
14 -64 17 -74 3 -12 1 -16 -5 -10 -8 9 -50 148 -50 169 0 26 28 -36 38 -85z
m312 30 c28 -56 24 -74 -5 -20 -13 25 -24 48 -25 53 -1 17 11 4 30 -33z m80
-106 c0 -4 9 -17 20 -29 41 -43 121 -214 243 -516 53 -132 72 -171 120 -251
189 -318 188 -317 172 -348 -21 -40 -29 -43 -52 -17 -40 43 -187 284 -253 413
-89 172 -202 450 -251 614 -23 78 -23 73 -4 66 19 -7 19 -3 -5 44 -20 38 -38
56 -26 25 3 -8 2 -15 -3 -15 -5 0 -11 11 -13 25 -3 15 -1 22 5 18 6 -4 7 5 3
23 -7 28 -6 28 18 -8 15 -20 26 -40 26 -44z m107 -36 c6 -13 16 -36 22 -52 10
-23 14 -26 26 -16 11 9 15 9 15 1 0 -6 7 -11 15 -11 37 0 153 -214 255 -470
34 -85 91 -213 128 -283 l65 -128 -16 -35 c-25 -52 -20 -56 -107 96 -74 130
-119 217 -170 330 -28 63 -60 133 -71 156 -10 22 -19 45 -19 50 0 6 -11 32
-24 60 -13 27 -41 87 -62 134 -21 47 -53 111 -71 142 -18 31 -33 59 -33 63 0
13 37 -15 47 -37z m4810 -70 c91 -156 143 -482 113 -713 -20 -166 -117 -490
-199 -673 -56 -124 -162 -320 -208 -388 -43 -62 -232 -225 -360 -310 -92 -62
-225 -119 -323 -140 -122 -26 -348 -11 -498 32 -133 39 -401 160 -547 248 -49
29 -112 79 -206 161 -26 23 -75 77 -110 120 -151 188 -263 286 -404 356 -95
47 -174 58 -292 40 -96 -15 -224 -2 -318 33 -192 73 -315 244 -315 438 0 146
-64 295 -172 399 -32 32 -48 55 -44 65 14 38 88 154 97 154 6 0 99 -85 207
-189 200 -193 311 -288 437 -375 39 -27 81 -59 95 -71 31 -27 202 -136 287
-182 78 -43 312 -130 503 -188 398 -121 710 -167 1000 -146 261 18 433 61 613
153 169 87 365 258 466 407 133 196 196 459 165 691 -16 122 -15 110 -10 110
2 0 13 -15 23 -32z m-4614 -29 c20 -17 35 -34 32 -38 -6 -10 30 -43 38 -35 6
6 53 -62 64 -94 6 -15 5 -16 -12 -2 -17 14 -18 14 -7 -7 7 -12 18 -26 25 -30
27 -17 267 -472 267 -506 0 -30 -23 -68 -37 -62 -11 3 -13 -1 -8 -16 4 -13 3
-19 -3 -16 -15 10 -81 151 -87 188 -3 19 -19 56 -35 82 -17 27 -30 54 -30 60
0 6 -11 34 -24 62 -22 46 -38 83 -40 95 -1 3 -5 11 -10 19 -6 9 -5 12 2 8 5
-4 24 -32 41 -62 17 -30 33 -55 36 -55 5 0 -60 122 -85 160 -10 14 -30 52 -46
85 -16 33 -36 67 -45 75 -23 21 -89 106 -89 114 0 13 16 5 53 -25z m197 -159
c0 -5 -2 -10 -4 -10 -3 0 -8 5 -11 10 -3 6 -1 10 4 10 6 0 11 -4 11 -10z m18
-45 c-3 -3 -9 2 -12 12 -6 14 -5 15 5 6 7 -7 10 -15 7 -18z m96 -85 c26 -30
44 -60 42 -67 -3 -7 1 -13 9 -13 14 0 80 -104 107 -170 12 -28 13 -42 3 -69
-6 -19 -16 -36 -21 -38 -6 -2 -57 88 -113 199 -63 122 -99 204 -92 206 6 2 8
9 5 15 -10 18 8 -1 60 -63z m334 -2 c7 -7 12 -16 12 -20 0 -15 -15 -8 -28 12
-13 22 -3 27 16 8z m119 -111 c59 -65 109 -157 122 -223 5 -27 13 -116 16
-197 3 -82 9 -156 12 -165 6 -14 4 -15 -8 -5 -9 7 -30 61 -48 120 -18 60 -49
160 -68 223 -19 63 -51 148 -70 188 -32 67 -37 112 -13 112 4 0 30 -24 57 -53z
m-1353 -13 c3 -8 2 -12 -4 -9 -6 3 -10 10 -10 16 0 14 7 11 14 -7z m1284 -61
c22 -52 94 -269 106 -318 6 -26 6 -28 -7 -15 -25 26 -187 270 -187 282 0 16
49 98 59 98 5 0 18 -21 29 -47z m-71 -201 c72 -96 219 -316 263 -397 19 -33
56 -93 83 -133 27 -41 46 -76 43 -79 -7 -7 -74 37 -143 95 -69 58 -156 165
-183 227 -13 28 -36 78 -51 112 -16 35 -29 67 -29 73 0 6 -4 18 -10 28 -19 35
-50 111 -50 125 0 12 9 27 16 27 1 0 29 -35 61 -78z m-57 -117 c68 -165 122
-263 183 -331 121 -137 209 -191 427 -264 30 -10 80 -30 110 -44 30 -14 61
-26 67 -26 7 0 45 -19 84 -42 69 -41 204 -174 204 -201 0 -7 7 -17 15 -24 8
-7 11 -13 6 -13 -5 0 -1 -9 9 -20 34 -38 7 -31 -64 16 -39 25 -68 51 -65 55 5
9 -9 13 -34 10 -7 -1 -15 5 -18 13 -3 9 -29 29 -58 45 -28 16 -69 39 -91 52
-22 12 -95 52 -162 88 -285 154 -471 333 -603 585 -20 39 -50 94 -66 123 -29
51 -29 51 -9 73 18 20 20 20 26 3 4 -10 21 -54 39 -98z m-949 -17 c78 -134
243 -371 352 -506 41 -51 57 -78 52 -90 -6 -15 -9 -14 -28 9 -76 89 -266 372
-353 522 -41 71 -74 131 -74 133 0 14 14 -5 51 -68z m-61 -9 c0 -9 124 -217
178 -299 20 -30 85 -121 144 -202 l108 -146 -26 -46 c-14 -25 -27 -46 -29 -46
-6 0 -85 119 -132 199 -92 155 -291 588 -257 560 8 -6 14 -15 14 -20z m956
-61 c59 -118 162 -300 227 -401 27 -43 47 -80 44 -83 -13 -14 -220 235 -328
395 -51 76 -56 87 -46 110 7 14 14 28 18 31 3 3 8 13 12 23 12 32 27 17 73
-75z m-896 -208 c77 -166 134 -267 255 -455 60 -93 11 -42 -72 75 -116 163
-177 283 -259 510 -34 95 -43 128 -21 80 6 -14 50 -108 97 -210z m802 93 c190
-285 450 -542 760 -751 40 -27 80 -57 88 -67 8 -9 23 -21 35 -26 11 -5 38 -21
60 -34 22 -14 47 -28 55 -32 8 -4 55 -31 104 -60 50 -29 97 -51 106 -48 9 3
25 -2 36 -11 18 -15 18 -15 -3 -5 -29 15 -33 14 -27 -4 4 -8 12 -15 20 -15 8
0 14 -5 14 -10 0 -6 10 -15 23 -20 21 -8 21 -9 2 -9 -12 -1 -38 8 -60 19 -57
29 -78 24 -27 -6 42 -25 55 -44 27 -40 -8 1 -18 5 -21 9 -15 15 -26 6 -13 -10
12 -15 12 -16 -6 -9 -53 20 -146 79 -135 86 8 5 7 9 -5 13 -9 4 -13 3 -10 -3
10 -16 -7 -11 -47 14 -21 12 -35 26 -31 29 3 4 -3 7 -15 7 -12 0 -31 9 -42 20
-11 11 -24 20 -30 20 -5 0 -10 4 -10 8 0 5 -17 16 -37 26 -204 95 -660 541
-853 834 l-48 74 20 34 c11 19 21 34 23 34 1 0 22 -30 47 -67z m3563 -3 c3 -5
29 -10 58 -10 45 0 49 -2 37 -15 -27 -26 -173 -105 -252 -135 -120 -46 -378
-105 -352 -80 5 4 41 22 81 38 40 17 118 60 175 95 177 112 235 136 253 107z
m-3598 -145 c159 -225 500 -567 746 -749 114 -84 324 -208 517 -306 55 -28
102 -56 106 -61 3 -6 -1 -18 -10 -27 -15 -15 -16 -15 -16 1 0 11 -17 24 -47
37 -356 153 -729 417 -1087 768 -127 125 -326 353 -326 373 0 18 33 60 44 56
6 -2 39 -43 73 -92z m768 -97 c51 -36 136 -82 257 -137 82 -37 148 -94 148
-127 0 -13 -2 -24 -4 -24 -2 0 -36 22 -77 49 -84 55 -143 84 -209 101 -113 30
-213 106 -255 196 -41 86 -32 94 33 33 31 -30 80 -71 107 -91z m-850 15 c47
-62 370 -395 445 -459 216 -184 483 -376 718 -518 63 -38 75 -49 45 -40 -10 2
0 -5 22 -16 22 -11 65 -36 95 -55 61 -38 85 -46 49 -15 -19 16 -12 14 33 -7
43 -20 58 -33 61 -52 3 -15 3 -28 1 -31 -7 -6 -215 102 -248 130 -9 6 -46 28
-83 47 -135 69 -526 340 -693 478 -166 139 -392 362 -507 503 -33 39 -35 44
-23 72 7 17 18 30 24 29 6 0 34 -30 61 -66z m985 -17 c30 -9 75 -21 100 -28
l45 -11 -53 -10 c-47 -8 -57 -6 -95 16 -51 31 -88 61 -67 54 8 -2 40 -12 70
-21z m-310 -169 c83 -58 176 -114 320 -195 197 -110 407 -249 348 -229 -29 10
-21 0 27 -33 25 -17 45 -37 45 -45 0 -19 -10 -18 -34 0 -11 8 -27 15 -36 15
-8 0 -33 9 -54 21 -75 40 -43 12 44 -39 50 -29 90 -59 90 -67 0 -8 -2 -15 -5
-15 -4 0 -209 105 -295 152 -89 49 -236 141 -265 168 -16 15 -55 43 -86 63
-78 51 -167 148 -238 258 -34 51 -61 97 -61 102 0 5 39 -25 88 -65 48 -40 98
-81 112 -91z m-715 66 c110 -124 339 -349 425 -419 193 -155 364 -281 543
-398 123 -80 148 -107 57 -61 -29 14 -54 25 -56 22 -2 -2 28 -20 66 -40 38
-20 120 -65 182 -100 62 -35 143 -79 180 -97 66 -34 81 -56 30 -44 -15 4 -39
15 -54 25 -31 23 -45 25 -29 5 10 -12 7 -14 -22 -12 -38 3 -159 65 -151 78 3
4 -2 5 -10 2 -9 -3 -16 -1 -16 5 0 6 -6 11 -14 11 -8 0 -16 4 -18 8 -1 5 -48
33 -103 62 -121 64 -340 207 -490 320 -60 46 -112 86 -115 89 -3 3 -32 28 -65
55 -114 94 -414 405 -454 470 -13 22 -13 29 4 65 10 23 21 41 25 41 4 0 42
-39 85 -87z m1559 66 c84 -31 192 -107 291 -205 84 -83 175 -191 175 -208 0
-5 -51 39 -112 96 -62 58 -133 118 -158 135 -89 60 -236 117 -349 134 -42 6
-87 15 -101 19 -23 7 -22 8 20 20 40 12 111 24 162 29 10 0 42 -8 72 -20z
m-169 -81 c8 -8 -64 -78 -81 -78 -8 0 -14 4 -14 9 0 5 -22 24 -50 42 -27 18
-50 34 -50 37 0 6 188 -3 195 -10z m-1490 -91 c28 -34 57 -69 66 -77 9 -8 36
-37 60 -65 33 -39 27 -35 -30 20 -74 72 -168 185 -154 185 4 0 31 -28 58 -63z
m1745 7 c141 -72 217 -150 310 -319 l33 -60 -99 96 c-236 230 -280 269 -312
278 -54 16 -123 -1 -169 -42 -34 -30 -36 -30 -49 -12 -22 30 -17 51 23 85 36
32 39 32 105 27 54 -5 85 -15 158 -53z m-1787 -46 c64 -78 260 -272 392 -388
130 -115 153 -135 268 -222 34 -25 73 -55 87 -66 62 -47 300 -190 439 -262 45
-24 80 -45 77 -47 -3 -3 -22 -5 -43 -5 -85 1 -403 179 -661 371 -210 155 -636
600 -618 646 9 24 21 18 59 -27z m1720 -2 c18 -7 43 -26 57 -41 l25 -28 -38 6
c-21 3 -63 18 -95 33 -53 25 -55 27 -32 34 37 12 48 11 83 -4z m-1714 -145
c277 -335 578 -579 983 -796 79 -43 82 -45 48 -46 -70 -2 -87 5 -284 123 -195
117 -262 163 -451 313 -110 87 -121 94 -112 72 10 -26 -2 -21 -67 30 -104 79
-175 155 -227 239 -27 45 -49 85 -49 88 0 12 52 86 61 86 4 0 48 -49 98 -109z
m1486 79 c17 -34 20 -59 5 -44 -11 11 -32 74 -25 74 3 0 11 -13 20 -30z m178
-2 c40 -17 93 -33 119 -36 26 -2 53 -11 59 -18 9 -12 4 -14 -32 -14 -24 0 -83
-3 -132 -6 -99 -7 -111 -2 -121 52 -13 64 4 68 107 22z m244 -122 c66 -35 292
-297 414 -481 115 -175 263 -448 378 -701 181 -400 396 -737 609 -955 l74 -77
-22 -30 c-31 -42 -44 -45 -71 -16 -12 13 -31 24 -41 24 -10 0 -26 4 -36 9 -9
6 -30 13 -46 16 -28 6 -51 27 -121 108 -28 32 -34 35 -78 32 -42 -3 -47 -1
-51 18 -14 70 -19 84 -32 104 -8 13 -29 25 -51 29 -21 4 -44 12 -52 18 -17 14
-63 15 -73 1 -4 -5 -15 -1 -27 9 -16 14 -21 31 -21 66 0 44 -4 51 -63 113 -35
37 -70 67 -78 67 -8 0 -31 -8 -51 -19 -36 -18 -38 -18 -55 1 -15 17 -15 23 -4
51 35 85 18 151 -57 216 -135 117 -141 121 -186 121 -24 0 -58 5 -75 11 -30
11 -32 14 -27 43 4 20 1 39 -9 53 -17 24 -86 47 -114 38 -18 -5 -43 17 -74 67
-22 36 -21 59 5 104 l21 36 -22 68 c-12 37 -19 74 -16 82 10 25 -31 50 -91 57
-32 3 -59 11 -61 17 -2 5 12 17 30 26 26 12 39 30 62 83 l28 67 -22 52 c-11
28 -21 66 -21 83 0 39 -21 53 -79 53 -23 0 -41 2 -41 5 0 3 14 24 30 47 34 46
36 72 15 155 -15 60 -32 79 -89 99 -17 6 -32 18 -34 26 -4 22 284 26 325 4z
m-1900 -218 c54 -47 145 -121 202 -166 l104 -80 3 -89 c2 -48 9 -122 17 -163
8 -41 13 -78 10 -82 -4 -7 -1013 1 -1021 8 -2 1 9 22 25 46 28 40 167 273 333
558 40 69 82 138 93 153 l20 29 58 -64 c32 -36 102 -103 156 -150z m2458 -187
c-3 -2 -35 8 -73 22 -88 35 -143 91 -216 222 -31 55 -56 104 -56 109 0 6 79
-71 175 -169 96 -99 172 -181 170 -184z m2002 -14 c107 -188 204 -354 214
-369 11 -14 19 -29 19 -32 0 -8 -490 -8 -829 1 -149 3 -270 9 -269 13 2 3 41
40 88 81 199 174 362 360 499 569 50 77 77 109 79 97 2 -10 92 -172 199 -360z
m-2832 341 c15 -6 28 -22 31 -37 2 -14 9 -40 14 -57 14 -44 12 -59 -9 -85
l-19 -24 -7 30 c-13 57 -36 150 -41 168 -6 20 -3 21 31 5z m-1160 -128 c3 -6
-1 -7 -9 -4 -18 7 -21 14 -7 14 6 0 13 -4 16 -10z m1995 -67 c127 -77 444
-223 485 -223 7 0 16 -4 19 -9 9 -13 -129 -2 -239 20 -122 25 -174 56 -292
176 -81 81 -108 121 -60 91 12 -9 51 -33 87 -55z m-1818 -75 c95 -69 272 -190
356 -243 48 -30 82 -56 57 -43 -129 65 -479 309 -530 369 l-20 24 25 -22 c14
-12 64 -50 112 -85z m1091 -25 c4 -2 7 -19 7 -36 0 -18 7 -45 15 -61 22 -41
21 -64 -4 -118 -20 -44 -55 -77 -68 -64 -20 19 -43 262 -28 286 6 10 57 5 78
-7z m728 -72 c160 -61 355 -102 521 -108 76 -3 135 -9 133 -13 -8 -13 -290 1
-397 20 -183 33 -375 96 -397 131 -12 20 -11 21 11 16 12 -2 71 -23 129 -46z
m1374 10 c-3 -6 -11 -11 -17 -11 -6 0 -6 6 2 15 14 17 26 13 15 -4z m-2235
-31 c0 -5 -2 -10 -4 -10 -3 0 -8 5 -11 10 -3 6 -1 10 4 10 6 0 11 -4 11 -10z
m-1020 -170 c74 -46 163 -99 198 -119 50 -28 59 -37 45 -42 -32 -13 -51 -9
-56 11 -3 11 -13 20 -22 20 -14 0 -15 -3 -5 -15 11 -13 -9 -15 -168 -15 l-180
0 -11 33 c-13 39 -30 165 -31 224 l0 42 48 -28 c26 -15 108 -66 182 -111z
m1870 110 c28 -11 61 -20 73 -20 13 0 27 -4 33 -10 15 -15 247 -49 393 -57
l136 -7 -75 -15 c-102 -19 -520 -22 -543 -3 -8 7 -25 33 -36 57 -11 24 -25 46
-31 50 -10 6 -14 25 -5 25 2 0 27 -9 55 -20z m1350 -4 c0 -12 -175 -128 -233
-155 -79 -36 -90 -38 -85 -13 2 9 12 17 23 17 11 0 29 8 39 18 11 9 28 17 38
17 10 0 62 27 115 60 100 61 103 63 103 56z m-165 -36 c-157 -75 -225 -102
-330 -135 -66 -20 -163 -50 -215 -67 -75 -24 -118 -31 -205 -34 -60 -2 -103
-1 -95 2 8 3 24 10 35 15 11 5 63 20 115 34 52 14 165 43 250 66 85 22 200 54
255 72 55 17 103 30 106 29 4 0 28 7 55 18 63 25 81 24 29 0z m-417 3 c-10 -2
-28 -2 -40 0 -13 2 -5 4 17 4 22 1 32 -1 23 -4z m-2108 -99 c0 -2 -9 0 -20 6
-11 6 -20 13 -20 16 0 2 9 0 20 -6 11 -6 20 -13 20 -16z m1456 -35 c11 -9 278
-4 364 7 33 4 41 2 29 -5 -18 -12 -83 -27 -154 -37 -27 -3 -53 -8 -57 -10 -4
-3 -31 -7 -60 -10 -29 -3 -73 -10 -98 -14 -48 -9 -64 -5 -57 14 3 7 -4 18 -15
25 -11 7 -17 15 -14 18 3 4 1 11 -4 18 -7 8 -1 10 23 7 17 -2 37 -8 43 -13z
m869 -20 c9 -14 5 -17 -35 -24 -19 -3 -39 -10 -46 -16 -16 -13 -110 -37 -175
-44 -68 -7 -52 1 111 54 143 46 137 44 145 30z m-1651 -39 c19 -7 26 -17 26
-37 1 -16 7 -39 15 -53 15 -26 19 -77 9 -104 -12 -30 -33 -16 -59 40 -39 82
-65 144 -65 155 0 12 42 12 74 -1z m-1576 -87 l151 -6 6 -26 c12 -46 111 -246
157 -317 70 -107 248 -318 361 -429 56 -55 132 -134 168 -175 60 -68 80 -83
195 -145 151 -80 217 -124 298 -194 45 -40 61 -49 71 -41 29 24 -15 102 -182
329 -156 213 -240 346 -323 516 -100 204 -188 475 -153 475 5 0 31 -14 58 -31
116 -73 346 -184 500 -239 28 -10 104 -39 170 -65 66 -25 162 -57 212 -70 51
-14 105 -31 120 -39 16 -8 62 -58 103 -111 163 -212 255 -303 534 -529 156
-126 383 -274 564 -365 24 -12 42 -28 40 -36 -2 -7 -79 -93 -173 -191 -838
-882 -1108 -1164 -1115 -1164 -4 0 -59 55 -121 123 -116 125 -341 367 -959
1032 -190 204 -484 521 -655 705 -170 184 -377 407 -460 495 -158 169 -402
431 -444 478 l-25 27 376 0 c206 0 443 -3 526 -7z m-552 -428 c213 -231 446
-483 518 -560 72 -77 185 -198 251 -270 66 -71 203 -220 305 -330 102 -110
271 -292 375 -405 105 -114 300 -325 435 -470 135 -146 252 -274 260 -284 15
-19 14 -19 -18 -2 -19 10 -104 59 -190 110 -87 51 -330 196 -542 321 -212 125
-529 314 -705 418 -176 105 -720 426 -1208 713 -488 287 -883 525 -878 529 16
9 13 35 -4 35 -8 0 -15 -7 -15 -15 0 -8 -6 -15 -12 -15 -14 1 -64 39 -57 43 2
2 123 69 269 150 146 81 387 216 535 301 149 85 275 154 282 153 6 -1 186
-191 399 -422z m967 413 c12 -6 23 -6 33 3 11 9 18 8 32 -5 21 -18 42 -21 42
-6 0 6 7 10 15 10 8 0 15 -4 15 -10 0 -5 7 -10 15 -10 8 0 15 4 15 9 0 4 26 9
58 10 l58 1 28 -117 c68 -276 210 -553 441 -858 109 -143 185 -250 185 -259 0
-15 -23 -3 -69 38 -70 63 -123 97 -240 157 -64 33 -117 68 -141 93 -21 23 -91
95 -157 161 -138 139 -368 419 -417 508 -48 86 -127 267 -121 276 7 12 186 11
208 -1z m668 -50 c57 -28 109 -51 116 -51 7 0 10 -3 8 -6 -2 -4 40 -28 92 -55
80 -41 92 -51 78 -59 -14 -7 -21 -5 -31 8 -9 12 -20 16 -36 12 -29 -8 -178 49
-318 121 -157 82 -157 82 -78 82 59 0 76 -5 169 -52z m138 27 c27 -13 52 -21
56 -17 5 4 4 1 0 -7 -6 -11 -4 -13 8 -8 17 7 97 -23 97 -36 0 -5 -10 -5 -21
-2 -14 5 -19 3 -15 -3 7 -12 -123 35 -214 77 l-45 21 43 0 c26 0 62 -10 91
-25z m269 7 c3 -9 -2 -13 -14 -10 -9 1 -19 9 -22 16 -3 9 2 13 14 10 9 -1 19
-9 22 -16z m2648 9 l321 -6 -429 -450 c-236 -247 -498 -523 -581 -612 -132
-141 -153 -160 -159 -142 -5 14 -15 19 -30 17 -30 -4 -37 -38 -9 -45 12 -3 21
-8 21 -11 0 -10 -53 -62 -63 -62 -37 0 -251 246 -386 445 -103 150 -284 495
-269 511 3 2 50 15 105 29 162 39 364 135 549 261 51 34 98 64 105 67 18 7
411 6 825 -2z m-1476 -12 c-25 -5 -56 -11 -70 -13 -14 -2 -36 -6 -50 -9 -79
-19 -170 -14 -149 8 8 7 175 22 254 23 l60 0 -45 -9z m350 -1 c-14 -6 -45 -20
-70 -31 -137 -60 -353 -117 -448 -117 -24 0 -34 6 -46 32 -9 17 -16 34 -16 38
0 4 37 10 83 14 92 7 227 30 332 56 81 20 207 26 165 8z m150 -31 c-156 -105
-410 -226 -518 -246 -120 -24 -109 -26 -137 29 -32 63 -31 70 4 70 56 0 261
41 349 69 86 28 175 64 257 102 22 10 56 18 75 19 l35 0 -65 -43z m1520 -53
c436 -255 869 -504 904 -520 22 -11 41 -24 44 -31 6 -19 -58 -53 -86 -46 -18
4 -24 1 -28 -14 -4 -13 -60 -51 -162 -108 -86 -49 -260 -147 -387 -218 -288
-163 -2348 -1340 -2782 -1590 -178 -102 -323 -183 -323 -180 0 3 21 29 47 57
60 65 713 755 858 906 60 63 161 168 223 233 l114 118 121 -50 c119 -48 250
-82 264 -67 15 14 -28 64 -133 155 -60 52 -111 98 -113 103 -2 5 33 45 77 89
73 73 82 79 100 68 17 -10 23 -10 36 1 15 12 15 15 1 37 -16 24 -15 26 162
211 277 289 827 873 857 910 15 17 31 32 35 32 3 0 81 -43 171 -96z m-3195
-33 c-5 -9 3 -13 58 -25 15 -4 27 -11 27 -16 0 -15 -16 -12 -72 12 -42 18 -47
23 -32 29 26 10 26 10 19 0z m-50 -71 c3 -6 -1 -7 -9 -4 -18 7 -21 14 -7 14 6
0 13 -4 16 -10z m40 -20 c3 -6 -1 -7 -9 -4 -18 7 -21 14 -7 14 6 0 13 -4 16
-10z m-29 -25 c10 -8 14 -15 8 -15 -5 0 -19 7 -30 15 -10 8 -14 15 -8 15 5 0
19 -7 30 -15z m147 4 c25 -11 54 -49 37 -49 -5 0 -10 4 -10 10 0 5 -16 16 -35
24 -34 14 -45 26 -25 26 5 0 20 -5 33 -11z m-38 -27 c-3 -3 -11 0 -18 7 -9 10
-8 11 6 5 10 -3 15 -9 12 -12z m-60 -2 c3 -5 1 -10 -4 -10 -6 0 -11 5 -11 10
0 6 2 10 4 10 3 0 8 -4 11 -10z m303 -36 c21 -14 29 -44 16 -57 -8 -8 -81 41
-88 59 -8 20 43 19 72 -2z m213 -169 c22 -19 44 -35 51 -35 19 0 96 -89 109
-127 13 -42 -2 -113 -26 -113 -13 0 -110 107 -143 159 -19 29 -18 28 -72 99
l-40 52 41 0 c33 0 49 -7 80 -35z m314 -371 c6 -12 25 -34 43 -49 30 -25 40
-53 26 -68 -7 -7 -36 14 -101 74 -37 33 -42 43 -32 55 17 20 51 14 64 -12z
m242 -228 c15 -8 36 -17 45 -20 18 -5 53 -64 44 -73 -5 -5 -146 96 -146 104 0
8 31 2 57 -11z m223 -171 c7 -9 10 -18 7 -21 -6 -7 -47 18 -47 28 0 14 27 9
40 -7z m464 -184 c10 -11 48 -42 83 -67 35 -26 62 -49 60 -51 -2 -2 -44 12
-93 31 -159 61 -161 62 -123 102 24 25 40 22 73 -15z"/>
<path d="M5424 9909 c-9 -15 12 -33 30 -26 9 4 16 13 16 22 0 17 -35 21 -46 4z"/>
<path d="M5307 9794 c-4 -4 -7 -16 -7 -26 0 -14 6 -19 23 -16 14 2 22 10 22
23 0 20 -25 32 -38 19z"/>
<path d="M5167 9647 c-8 -21 8 -39 29 -35 27 5 25 42 -2 46 -12 2 -24 -3 -27
-11z"/>
<path d="M5037 9513 c-13 -12 -7 -41 10 -47 9 -4 23 0 31 8 13 12 13 18 2 30
-13 17 -32 21 -43 9z"/>
<path d="M4890 9346 c0 -28 22 -39 45 -23 22 17 9 47 -21 47 -19 0 -24 -5 -24
-24z"/>
<path d="M4752 9218 c-25 -25 0 -64 32 -52 21 8 21 50 0 58 -20 8 -18 8 -32
-6z"/>
<path d="M4607 9064 c-12 -13 -8 -42 8 -48 25 -9 46 5 43 28 -3 21 -37 34 -51
20z"/>
<path d="M4460 8905 c-10 -12 -10 -18 0 -30 7 -8 18 -15 25 -15 19 0 36 25 29
44 -8 20 -38 21 -54 1z"/>
<path d="M4314 8756 c-10 -26 4 -48 28 -44 17 2 23 10 23 28 0 18 -6 26 -23
28 -13 2 -25 -3 -28 -12z"/>
<path d="M4174 8606 c-10 -26 4 -48 28 -44 17 2 23 10 23 28 0 18 -6 26 -23
28 -13 2 -25 -3 -28 -12z"/>
<path d="M4034 8456 c-10 -26 4 -48 28 -44 17 2 23 10 23 28 0 18 -6 26 -23
28 -13 2 -25 -3 -28 -12z"/>
<path d="M5733 9843 c-15 -5 -17 -39 -4 -47 16 -10 41 5 41 24 0 19 -17 30
-37 23z"/>
<path d="M5842 9707 c-9 -10 -9 -18 1 -31 17 -23 49 -11 45 18 -4 25 -30 32
-46 13z"/>
<path d="M5970 9564 c-11 -12 -10 -18 3 -32 16 -15 18 -15 33 0 19 18 12 48
-9 48 -8 0 -20 -7 -27 -16z"/>
<path d="M6100 9425 c-11 -13 -11 -19 3 -32 21 -21 49 -9 45 19 -4 28 -30 35
-48 13z"/>
<path d="M6231 9286 c-17 -20 -2 -48 23 -44 24 3 34 37 14 49 -18 12 -24 11
-37 -5z"/>
<path d="M6356 9135 c-3 -8 2 -21 10 -29 20 -20 44 -9 44 20 0 19 -5 24 -24
24 -13 0 -26 -7 -30 -15z"/>
<path d="M6502 9001 c-23 -14 -10 -46 18 -46 16 0 26 6 28 19 3 16 -12 36 -28
36 -3 0 -11 -4 -18 -9z"/>
<path d="M6626 8844 c-9 -22 17 -49 39 -40 10 3 15 15 13 28 -4 29 -42 37 -52
12z"/>
<path d="M6764 8695 c-4 -9 0 -23 8 -31 20 -20 50 -7 46 20 -4 26 -45 35 -54
11z"/>
<path d="M6907 8554 c-14 -15 -6 -43 14 -49 25 -8 42 6 37 31 -3 19 -38 31
-51 18z"/>
<path d="M3773 8183 c-18 -6 -16 -50 2 -57 8 -3 21 2 29 10 24 24 1 58 -31 47z"/>
<path d="M3630 8014 c0 -21 4 -25 23 -22 14 2 23 11 25 26 3 18 -1 22 -22 22
-21 0 -26 -5 -26 -26z"/>
<path d="M3507 7904 c-12 -12 -8 -42 6 -47 21 -8 39 8 35 29 -3 19 -29 30 -41
18z"/>
<path d="M3380 7764 c-11 -12 -10 -18 3 -32 16 -15 18 -15 34 0 13 14 14 20 3
32 -7 9 -16 16 -20 16 -4 0 -13 -7 -20 -16z"/>
<path d="M1870 7715 c-11 -13 -11 -19 3 -32 21 -21 49 -9 45 19 -4 28 -30 35
-48 13z"/>
<path d="M3260 7635 c-15 -18 -5 -35 20 -35 10 0 22 5 25 10 7 11 -12 40 -25
40 -4 0 -13 -7 -20 -15z"/>
<path d="M2037 7623 c-13 -12 -7 -44 9 -50 23 -9 48 25 33 44 -12 14 -32 17
-42 6z"/>
<path d="M3134 7505 c-8 -19 3 -35 26 -35 19 0 30 17 23 38 -6 17 -42 15 -49
-3z"/>
<path d="M3414 7146 c-8 -21 3 -36 27 -36 15 0 20 6 17 22 -4 27 -35 37 -44
14z"/>
<path d="M3597 7154 c-12 -12 -8 -42 6 -47 21 -8 39 8 35 29 -3 19 -29 30 -41
18z"/>
<path d="M3780 7144 c-11 -12 -10 -18 3 -32 16 -15 18 -15 33 0 19 18 12 48
-9 48 -8 0 -20 -7 -27 -16z"/>
<path d="M3973 7153 c-17 -6 -16 -28 2 -43 22 -19 48 5 34 31 -10 19 -15 21
-36 12z"/>
<path d="M4154 7145 c-9 -23 4 -47 23 -43 22 4 30 38 11 49 -19 13 -28 11 -34
-6z"/>
<path d="M4340 7145 c-25 -30 10 -61 38 -33 17 17 15 26 -7 37 -14 8 -22 7
-31 -4z"/>
<path d="M4531 7150 c-19 -11 -9 -45 14 -45 13 0 21 8 23 21 3 23 -17 37 -37
24z"/>
<path d="M2510 6215 c0 -9 5 -15 11 -13 6 2 11 8 11 13 0 5 -5 11 -11 13 -6 2
-11 -4 -11 -13z"/>
<path d="M2472 6108 c5 -15 28 -18 29 -3 0 6 -7 12 -17 13 -10 3 -15 -1 -12
-10z"/>
<path d="M2442 5999 c2 -6 8 -10 13 -10 5 0 11 4 13 10 2 6 -4 11 -13 11 -9 0
-15 -5 -13 -11z"/>
<path d="M2405 5900 c-10 -17 12 -37 25 -24 8 8 6 15 -4 23 -10 9 -16 9 -21 1z"/>
<path d="M2370 5775 c0 -8 7 -15 15 -15 8 0 15 7 15 15 0 8 -7 15 -15 15 -8 0
-15 -7 -15 -15z"/>
<path d="M7191 8246 c-25 -30 16 -67 44 -40 11 12 12 20 5 35 -12 22 -33 25
-49 5z"/>
<path d="M7337 8099 c-22 -13 -22 -36 1 -47 23 -12 42 -4 42 18 0 26 -22 41
-43 29z"/>
<path d="M7475 7947 c-23 -17 -14 -47 15 -47 26 0 37 27 18 46 -12 12 -17 12
-33 1z"/>
<path d="M7604 7796 c-9 -24 4 -48 23 -44 12 2 18 12 18 28 0 29 -32 41 -41
16z"/>
<path d="M9267 7714 c-14 -14 -7 -35 11 -32 9 2 17 10 17 17 0 16 -18 25 -28
15z"/>
<path d="M7742 7661 c-20 -12 -10 -46 13 -46 14 0 20 7 20 24 0 27 -13 35 -33
22z"/>
<path d="M9147 7644 c-14 -14 -7 -35 11 -32 9 2 17 10 17 17 0 16 -18 25 -28
15z"/>
<path d="M9006 7555 c-6 -17 17 -31 34 -20 5 3 10 13 10 21 0 19 -36 18 -44
-1z"/>
<path d="M7867 7513 c-12 -11 -7 -33 8 -39 20 -8 45 13 38 32 -5 14 -34 19
-46 7z"/>
<path d="M7997 7383 c-12 -12 -7 -41 7 -46 22 -9 41 19 26 38 -14 16 -23 19
-33 8z"/>
<path d="M8110 7230 c0 -16 5 -21 23 -18 12 2 22 10 22 18 0 8 -10 16 -22 18
-18 3 -23 -2 -23 -18z"/>
<path d="M7652 7113 c2 -10 10 -18 18 -18 22 0 18 29 -3 33 -14 3 -18 -1 -15
-15z"/>
<path d="M7790 7110 c0 -11 7 -20 15 -20 8 0 15 9 15 20 0 11 -7 20 -15 20 -8
0 -15 -9 -15 -20z"/>
<path d="M7924 7119 c-10 -17 13 -36 27 -22 12 12 4 33 -11 33 -5 0 -12 -5
-16 -11z"/>
<path d="M8544 6175 c-4 -9 -2 -21 4 -27 15 -15 44 -1 40 19 -4 23 -36 29 -44
8z"/>
<path d="M8587 6016 c-7 -18 1 -26 25 -26 11 0 18 7 18 20 0 23 -35 28 -43 6z"/>
<path d="M8641 5871 c-17 -11 -7 -41 13 -41 22 0 30 20 15 36 -9 8 -19 10 -28
5z"/>
<path d="M8681 5706 c-9 -10 -8 -16 4 -26 19 -16 41 1 32 24 -8 20 -21 20 -36
2z"/>
<path d="M4704 7135 c-8 -20 4 -35 27 -35 14 0 19 7 19 25 0 18 -5 25 -20 25
-11 0 -23 -7 -26 -15z"/>
<path d="M4890 7125 c0 -22 4 -26 23 -23 14 2 22 10 22 23 0 13 -8 21 -22 23
-19 3 -23 -1 -23 -23z"/>
<path d="M5074 7135 c-4 -9 -2 -21 4 -27 15 -15 44 -1 40 19 -4 23 -36 29 -44
8z"/>
<path d="M5258 7138 c-8 -21 2 -38 22 -38 23 0 32 13 24 34 -7 19 -40 21 -46
4z"/>
<path d="M5443 7139 c-16 -16 -5 -39 17 -39 25 0 35 18 20 35 -15 18 -22 19
-37 4z"/>
<path d="M5620 7140 c-18 -11 -4 -40 20 -40 13 0 20 7 20 19 0 22 -21 33 -40
21z"/>
<path d="M5790 7135 c-10 -12 -10 -18 0 -29 16 -20 42 -8 38 17 -4 26 -21 32
-38 12z"/>
<path d="M5955 7130 c-9 -15 4 -30 26 -30 12 0 19 7 19 20 0 21 -33 29 -45 10z"/>
<path d="M6130 7120 c0 -13 7 -20 20 -20 13 0 20 7 20 20 0 13 -7 20 -20 20
-13 0 -20 -7 -20 -20z"/>
<path d="M6297 7126 c-8 -19 15 -37 32 -26 17 10 7 40 -13 40 -7 0 -16 -6 -19
-14z"/>
<path d="M8730 7410 c0 -5 4 -10 9 -10 6 0 13 5 16 10 3 6 -1 10 -9 10 -9 0
-16 -4 -16 -10z"/>
<path d="M8820 7410 c0 -5 5 -10 10 -10 6 0 10 5 10 10 0 6 -4 10 -10 10 -5 0
-10 -4 -10 -10z"/>
<path d="M8686 7391 c-4 -7 -5 -15 -2 -18 9 -9 19 4 14 18 -4 11 -6 11 -12 0z"/>
<path d="M8850 7390 c0 -5 5 -10 10 -10 6 0 10 5 10 10 0 6 -4 10 -10 10 -5 0
-10 -4 -10 -10z"/>
<path d="M8753 7376 c-26 -12 -30 -26 -8 -26 8 0 15 5 15 10 0 6 7 10 15 10 8
0 15 5 15 10 0 12 -8 11 -37 -4z"/>
<path d="M8610 7370 c0 -5 5 -10 10 -10 6 0 10 5 10 10 0 6 -4 10 -10 10 -5 0
-10 -4 -10 -10z"/>
<path d="M8780 7340 c0 -19 3 -21 12 -12 9 9 9 15 0 24 -9 9 -12 7 -12 -12z"/>
<path d="M8880 7346 c0 -8 5 -18 10 -21 6 -3 10 3 10 14 0 12 -4 21 -10 21 -5
0 -10 -6 -10 -14z"/>
<path d="M8555 7341 c-7 -12 12 -24 25 -16 11 7 4 25 -10 25 -5 0 -11 -4 -15
-9z"/>
<path d="M8835 7340 c3 -5 10 -10 16 -10 5 0 9 5 9 10 0 6 -7 10 -16 10 -8 0
-12 -4 -9 -10z"/>
<path d="M8603 7305 c-3 -9 -3 -18 0 -21 9 -9 27 6 27 22 0 19 -19 18 -27 -1z"/>
<path d="M8670 7305 c0 -8 5 -15 10 -15 6 0 10 7 10 15 0 8 -4 15 -10 15 -5 0
-10 -7 -10 -15z"/>
<path d="M8845 7300 c-3 -5 1 -10 9 -10 8 0 18 5 21 10 3 6 -1 10 -9 10 -8 0
-18 -4 -21 -10z"/>
<path d="M8746 7293 c-12 -12 -6 -33 9 -33 8 0 15 6 15 14 0 17 -14 28 -24 19z"/>
<path d="M8530 7275 c0 -8 7 -15 15 -15 9 0 12 6 9 15 -4 8 -10 15 -15 15 -5
0 -9 -7 -9 -15z"/>
<path d="M8800 7275 c0 -9 6 -12 15 -9 8 4 15 10 15 15 0 5 -7 9 -15 9 -8 0
-15 -7 -15 -15z"/>
<path d="M8650 7245 c0 -16 16 -20 24 -6 3 5 -1 11 -9 15 -9 3 -15 0 -15 -9z"/>
<path d="M8830 7241 c0 -6 5 -13 10 -16 6 -3 10 1 10 9 0 9 -4 16 -10 16 -5 0
-10 -4 -10 -9z"/>
<path d="M8466 7231 c-4 -7 -5 -15 -2 -18 9 -9 19 4 14 18 -4 11 -6 11 -12 0z"/>
<path d="M8570 7230 c0 -5 7 -10 16 -10 8 0 12 5 9 10 -3 6 -10 10 -16 10 -5
0 -9 -4 -9 -10z"/>
<path d="M8786 7231 c-7 -11 14 -51 27 -51 9 0 -1 40 -13 53 -4 5 -11 4 -14
-2z"/>
<path d="M8865 7221 c-6 -11 9 -23 19 -14 9 9 7 23 -3 23 -6 0 -12 -4 -16 -9z"/>
<path d="M8730 7210 c0 -5 5 -10 10 -10 6 0 10 5 10 10 0 6 -4 10 -10 10 -5 0
-10 -4 -10 -10z"/>
<path d="M8385 7200 c-3 -5 -2 -10 4 -10 5 0 13 5 16 10 3 6 2 10 -4 10 -5 0
-13 -4 -16 -10z"/>
<path d="M8680 7200 c0 -5 5 -10 10 -10 6 0 10 5 10 10 0 6 -4 10 -10 10 -5 0
-10 -4 -10 -10z"/>
<path d="M8456 7191 c-4 -7 -5 -15 -2 -18 9 -9 19 4 14 18 -4 11 -6 11 -12 0z"/>
<path d="M8593 7166 c-19 -19 -20 -23 -7 -41 12 -16 16 -17 23 -6 5 8 7 20 4
28 -3 7 0 13 6 13 6 0 11 7 11 15 0 20 -10 17 -37 -9z"/>
<path d="M8740 7176 c0 -9 5 -16 10 -16 6 0 10 4 10 9 0 6 -4 13 -10 16 -5 3
-10 -1 -10 -9z"/>
<path d="M8327 7153 c-7 -35 -1 -41 20 -21 8 9 13 24 10 32 -10 25 -24 19 -30
-11z"/>
<path d="M8510 7165 c0 -8 5 -15 10 -15 6 0 10 7 10 15 0 8 -4 15 -10 15 -5 0
-10 -7 -10 -15z"/>
<path d="M8265 7150 c3 -5 11 -10 16 -10 6 0 7 5 4 10 -3 6 -11 10 -16 10 -6
0 -7 -4 -4 -10z"/>
<path d="M8394 7138 c-12 -19 -14 -58 -3 -58 9 0 29 41 29 61 0 13 -17 11 -26
-3z"/>
<path d="M8440 7140 c-13 -8 -12 -10 3 -10 9 0 17 5 17 10 0 12 -1 12 -20 0z"/>
<path d="M8694 7138 c-4 -6 0 -16 9 -23 10 -7 17 -18 17 -26 0 -10 2 -11 13 0
10 10 9 14 -5 22 -10 5 -15 16 -12 24 7 18 -12 20 -22 3z"/>
<path d="M8790 7134 c0 -8 5 -12 10 -9 6 4 17 2 25 -5 8 -7 15 -7 19 -1 4 6
-2 15 -13 20 -28 15 -41 14 -41 -5z"/>
<path d="M8630 7114 c0 -9 5 -14 12 -12 18 6 21 28 4 28 -9 0 -16 -7 -16 -16z"/>
<path d="M8230 7110 c0 -5 7 -10 15 -10 8 0 15 5 15 10 0 6 -7 10 -15 10 -8 0
-15 -4 -15 -10z"/>
<path d="M8490 7110 c0 -5 5 -10 10 -10 6 0 10 5 10 10 0 6 -4 10 -10 10 -5 0
-10 -4 -10 -10z"/>
<path d="M8284 7097 c-9 -26 4 -53 18 -39 7 7 22 12 35 12 13 0 23 5 23 10 0
6 -10 10 -23 10 -13 0 -28 5 -35 12 -9 9 -13 7 -18 -5z"/>
<path d="M8176 7091 c-4 -5 -3 -16 0 -25 3 -9 1 -16 -6 -16 -6 0 -8 5 -5 10 3
6 0 10 -7 10 -8 0 -13 -13 -14 -30 -1 -19 4 -30 12 -30 8 0 14 7 14 15 0 8 7
15 15 15 8 0 15 -6 15 -14 0 -22 43 -28 58 -8 12 15 10 17 -17 20 -19 2 -31 9
-31 18 0 8 -4 14 -10 14 -5 0 -7 7 -4 15 7 16 -11 21 -20 6z"/>
<path d="M8800 7084 c0 -8 5 -12 10 -9 6 4 8 11 5 16 -9 14 -15 11 -15 -7z"/>
<path d="M8670 7075 c0 -8 7 -15 15 -15 8 0 15 7 15 15 0 8 -7 15 -15 15 -8 0
-15 -7 -15 -15z"/>
<path d="M8524 7071 c5 -7 14 -10 22 -7 7 3 16 1 19 -4 4 -6 14 -10 23 -10 27
0 0 19 -37 26 -26 5 -32 4 -27 -5z"/>
<path d="M8420 7045 c0 -14 3 -25 8 -25 29 1 40 50 11 50 -14 0 -19 -7 -19
-25z"/>
<path d="M8735 7060 c-4 -6 -3 -16 3 -22 6 -6 12 -6 17 2 4 6 3 16 -3 22 -6 6
-12 6 -17 -2z"/>
<path d="M8845 7060 c-3 -5 1 -10 9 -10 9 0 16 5 16 10 0 6 -4 10 -9 10 -6 0
-13 -4 -16 -10z"/>
<path d="M8343 7053 c-20 -7 -15 -23 6 -23 19 0 34 -26 29 -50 -2 -7 3 -15 9
-17 9 -3 12 7 11 31 -1 20 -5 36 -10 36 -4 0 -8 7 -8 15 0 15 -14 18 -37 8z"/>
<path d="M8480 7030 c0 -5 7 -10 15 -10 8 0 15 5 15 10 0 6 -7 10 -15 10 -8 0
-15 -4 -15 -10z"/>
<path d="M8650 7031 c0 -17 18 -21 24 -6 3 9 0 15 -9 15 -8 0 -15 -4 -15 -9z"/>
<path d="M8775 7009 c-6 -19 0 -38 9 -28 10 12 16 49 7 49 -5 0 -13 -9 -16
-21z"/>
<path d="M8290 7010 c0 -5 7 -10 15 -10 8 0 15 5 15 10 0 6 -7 10 -15 10 -8 0
-15 -4 -15 -10z"/>
<path d="M8546 7011 c-4 -5 -2 -12 3 -15 5 -4 12 -2 15 3 4 5 2 12 -3 15 -5 4
-12 2 -15 -3z"/>
<path d="M8720 7001 c0 -12 5 -21 10 -21 6 0 10 6 10 14 0 8 -4 18 -10 21 -5
3 -10 -3 -10 -14z"/>
<path d="M8119 7009 c-1 -2 -3 -21 -4 -41 -3 -27 0 -36 9 -32 14 5 15 58 2 71
-3 3 -6 4 -7 2z"/>
<path d="M8654 6984 c-19 -13 -20 -18 -10 -39 13 -28 32 -27 29 1 -1 10 4 22
10 26 8 5 8 10 2 17 -6 6 -18 4 -31 -5z"/>
<path d="M8070 6980 c0 -5 5 -10 10 -10 6 0 10 5 10 10 0 6 -4 10 -10 10 -5 0
-10 -4 -10 -10z"/>
<path d="M8445 6979 c-4 -6 -5 -13 -2 -16 7 -7 27 6 27 18 0 12 -17 12 -25 -2z"/>
<path d="M8590 6980 c0 -5 5 -10 10 -10 6 0 10 5 10 10 0 6 -4 10 -10 10 -5 0
-10 -4 -10 -10z"/>
<path d="M8175 6967 c-12 -10 -14 -16 -7 -21 13 -8 52 10 52 24 0 14 -23 12
-45 -3z"/>
<path d="M8320 6970 c0 -5 7 -10 15 -10 8 0 15 5 15 10 0 6 -7 10 -15 10 -8 0
-15 -4 -15 -10z"/>
<path d="M8260 6960 c0 -5 7 -7 15 -4 8 4 15 8 15 10 0 2 -7 4 -15 4 -8 0 -15
-4 -15 -10z"/>
<path d="M8805 6951 c-6 -11 9 -23 19 -14 9 9 7 23 -3 23 -6 0 -12 -4 -16 -9z"/>
<path d="M8357 6943 c-12 -11 -8 -23 8 -23 8 0 15 7 15 15 0 16 -12 20 -23 8z"/>
<path d="M8410 6940 c0 -5 4 -10 9 -10 6 0 13 5 16 10 3 6 -1 10 -9 10 -9 0
-16 -4 -16 -10z"/>
<path d="M8495 6928 c-6 -13 -17 -22 -24 -20 -8 2 -18 -3 -23 -10 -8 -10 -11
-10 -15 0 -6 14 -33 16 -33 2 0 -5 7 -10 15 -10 7 0 19 -8 25 -17 10 -17 12
-16 26 5 9 12 24 22 34 22 12 0 18 8 18 25 0 31 -10 32 -23 3z"/>
<path d="M8550 6940 c0 -5 5 -10 10 -10 6 0 10 5 10 10 0 6 -4 10 -10 10 -5 0
-10 -4 -10 -10z"/>
<path d="M8240 6925 c0 -9 5 -15 11 -13 6 2 11 8 11 13 0 5 -5 11 -11 13 -6 2
-11 -4 -11 -13z"/>
<path d="M8745 6927 c-4 -10 -5 -21 -1 -24 10 -10 18 4 13 24 -4 17 -4 17 -12
0z"/>
<path d="M8310 6921 c0 -6 -7 -11 -15 -11 -22 0 -18 -17 5 -30 26 -14 41 -5
36 22 -3 22 -26 38 -26 19z"/>
<path d="M8695 6921 c-3 -5 -1 -12 5 -16 12 -7 30 2 30 16 0 12 -27 12 -35 0z"/>
<path d="M8163 6913 c-25 -9 -14 -30 14 -27 15 1 35 -2 45 -7 24 -13 24 9 1
27 -19 14 -39 16 -60 7z"/>
<path d="M8587 6913 c-12 -11 -8 -23 7 -23 8 0 16 7 20 15 5 15 -14 21 -27 8z"/>
<path d="M8072 6899 c2 -6 8 -10 13 -10 5 0 11 4 13 10 2 6 -4 11 -13 11 -9 0
-15 -5 -13 -11z"/>
<path d="M8340 6866 c0 -8 -3 -21 -6 -30 -4 -11 -1 -16 11 -16 11 0 15 5 11
15 -3 9 0 15 9 15 20 0 19 16 -1 24 -22 8 -24 8 -24 -8z"/>
<path d="M8525 6869 c-10 -15 3 -25 16 -12 7 7 7 13 1 17 -6 3 -14 1 -17 -5z"/>
<path d="M8611 6850 c-14 -41 -14 -44 -3 -48 10 -3 32 41 32 63 0 26 -18 16
-29 -15z"/>
<path d="M8720 6870 c0 -5 5 -10 10 -10 6 0 10 5 10 10 0 6 -4 10 -10 10 -5 0
-10 -4 -10 -10z"/>
<path d="M8110 6862 c0 -5 9 -17 20 -27 11 -10 20 -23 20 -29 0 -6 15 -18 33
-25 17 -8 38 -20 44 -27 7 -7 18 -14 25 -16 9 -3 7 -10 -6 -24 -19 -19 -19
-19 -1 -23 11 -2 21 2 23 8 2 6 10 11 18 11 8 0 13 8 11 19 -1 11 3 19 8 18
12 -2 14 -28 3 -43 -5 -7 -3 -30 4 -53 13 -41 28 -55 28 -26 0 9 9 15 23 15
12 0 28 10 36 21 9 16 15 18 20 10 9 -15 55 -5 72 15 6 7 8 25 5 39 -5 20 -10
23 -28 16 -27 -10 -36 -31 -14 -31 16 0 21 -12 10 -23 -3 -3 -19 -1 -35 5 -25
9 -32 7 -43 -7 -10 -14 -16 -15 -34 -6 -27 15 -28 31 -2 38 21 6 28 33 9 33
-7 0 -20 10 -30 22 -18 20 -20 21 -39 3 -17 -16 -23 -17 -45 -5 -34 18 -43 44
-12 36 29 -7 67 3 67 18 0 22 -21 35 -41 25 -11 -5 -28 -13 -39 -19 -11 -5
-30 -10 -42 -10 -21 1 -22 2 -5 14 24 19 21 29 -8 24 -14 -3 -25 -1 -25 3 0 5
-7 9 -15 9 -8 0 -15 -4 -15 -8z"/>
<path d="M8560 6860 c0 -5 7 -7 15 -4 8 4 15 8 15 10 0 2 -7 4 -15 4 -8 0 -15
-4 -15 -10z"/>
<path d="M8670 6855 c0 -8 7 -15 15 -15 8 0 15 7 15 15 0 8 -7 15 -15 15 -8 0
-15 -7 -15 -15z"/>
<path d="M8033 6830 c3 -11 1 -20 -4 -20 -5 0 -9 5 -9 10 0 6 -4 10 -10 10
-16 0 -11 -26 9 -44 18 -16 20 -16 37 7 11 12 27 26 37 30 10 4 15 12 12 17
-5 8 -12 7 -23 -2 -12 -10 -16 -10 -19 0 -8 21 -36 14 -30 -8z"/>
<path d="M8420 6840 c0 -5 7 -10 15 -10 8 0 15 5 15 10 0 6 -7 10 -15 10 -8 0
-15 -4 -15 -10z"/>
<path d="M8480 6815 c0 -7 -7 -18 -16 -23 -9 -5 -14 -14 -10 -21 10 -16 26
-14 26 4 0 19 3 19 38 -2 16 -10 27 -24 25 -30 -3 -8 4 -13 16 -13 13 0 21 -6
21 -16 0 -9 5 -14 12 -12 22 8 19 26 -7 32 -26 7 -33 20 -15 31 20 12 -1 31
-31 27 -24 -4 -31 0 -36 17 -6 24 -23 29 -23 6z"/>
<path d="M8545 6819 c-10 -15 3 -25 16 -12 7 7 7 13 1 17 -6 3 -14 1 -17 -5z"/>
<path d="M8767 6824 c-8 -8 1 -24 14 -24 5 0 9 7 9 15 0 15 -12 20 -23 9z"/>
<path d="M8367 6795 c-4 -8 -2 -15 3 -15 6 0 10 -8 10 -18 0 -10 6 -27 14 -38
14 -18 15 -18 24 6 8 20 6 27 -9 34 -11 5 -18 16 -17 24 4 20 -18 27 -25 7z"/>
<path d="M8670 6784 c0 -8 5 -12 10 -9 6 3 10 10 10 16 0 5 -4 9 -10 9 -5 0
-10 -7 -10 -16z"/>
<path d="M8620 6775 c0 -8 5 -15 10 -15 6 0 10 7 10 15 0 8 -4 15 -10 15 -5 0
-10 -7 -10 -15z"/>
<path d="M8080 6770 c0 -5 5 -10 11 -10 8 0 7 -5 -1 -15 -7 -9 -19 -14 -26
-11 -7 3 -16 1 -20 -5 -3 -6 -12 -8 -20 -5 -9 4 -14 -2 -14 -15 0 -17 4 -19
23 -13 12 4 25 11 28 16 4 6 9 6 14 -2 5 -8 11 -8 23 3 28 23 53 28 68 13 22
-23 16 -34 -17 -32 -35 3 -48 -16 -29 -39 11 -13 10 -14 -4 -9 -9 3 -16 1 -16
-5 0 -6 -7 -11 -15 -11 -18 0 -19 12 -3 28 6 6 8 15 5 19 -4 4 -17 -2 -28 -14
l-21 -21 23 -31 c12 -17 31 -31 41 -31 24 0 23 -13 -2 -35 -11 -10 -20 -29
-20 -42 0 -16 6 -23 20 -23 17 0 20 -7 20 -44 0 -34 6 -49 25 -67 27 -27 33
-59 10 -59 -20 0 -19 -20 1 -34 12 -9 13 -17 4 -40 -8 -21 -7 -32 2 -44 7 -8
11 -26 10 -39 -3 -21 0 -24 20 -21 17 2 23 9 22 26 0 12 3 22 8 22 4 0 8 11 8
24 0 21 6 25 32 28 22 2 34 9 36 21 3 15 -1 17 -25 11 -28 -6 -28 -6 -6 10 18
14 26 14 42 4 24 -15 39 -4 22 16 -11 13 -6 18 28 33 47 20 60 42 35 60 -10 7
-15 16 -11 19 4 4 13 2 20 -5 23 -18 50 -2 43 25 -7 26 22 64 48 64 17 0 32
39 20 49 -5 3 -16 19 -24 34 -17 33 -4 47 36 39 17 -3 24 0 24 11 0 20 -16 30
-32 21 -7 -5 -29 -7 -49 -5 -41 3 -56 -10 -34 -29 8 -7 13 -16 10 -20 -6 -9
-119 -5 -135 5 -13 8 -32 -4 -25 -16 4 -5 15 -9 25 -9 27 0 15 -26 -20 -44
-24 -12 -30 -12 -34 0 -3 7 3 18 12 24 15 9 15 12 -8 30 -41 33 -46 25 -23
-37 3 -7 0 -13 -6 -13 -6 0 -11 -9 -11 -19 0 -13 -5 -18 -17 -15 -21 6 -25 54
-5 54 15 0 16 16 1 25 -6 4 -17 -1 -24 -11 -14 -18 -14 -18 -15 4 0 13 6 22
14 22 25 0 29 21 7 36 -12 8 -21 22 -21 30 0 17 12 18 26 4 8 -8 15 -6 24 5
11 13 11 18 1 24 -7 5 -10 18 -6 33 7 27 -12 42 -40 32 -8 -4 -17 1 -21 10 -7
17 -64 23 -64 6z m380 -230 c27 -27 25 -30 -10 -30 -16 0 -30 4 -30 9 0 5 -3
16 -6 25 -9 23 22 20 46 -4z m-109 -63 c-16 -17 -23 -19 -33 -9 -16 16 -49 15
-47 0 3 -28 -2 -37 -33 -49 l-33 -13 35 -4 c19 -2 36 1 38 7 2 6 11 11 20 11
15 0 15 -2 2 -10 -12 -8 -11 -13 8 -33 22 -23 21 -37 -5 -37 -7 0 -13 7 -13
15 0 8 -9 15 -19 15 -11 0 -23 5 -26 10 -4 7 -13 7 -26 0 -17 -10 -23 -7 -21
11 1 4 -3 21 -8 38 -10 36 6 54 25 28 15 -20 39 -23 32 -3 -11 28 49 56 101
47 l24 -4 -21 -20z m69 -3 c0 -8 -6 -14 -14 -14 -18 0 -29 27 -13 33 16 6 27
-1 27 -19z m-270 -4 c0 -5 -2 -10 -4 -10 -3 0 -8 5 -11 10 -3 6 -1 10 4 10 6
0 11 -4 11 -10z m224 -29 c3 -5 -3 -11 -15 -14 -16 -4 -18 -3 -8 9 13 16 16
17 23 5z m-100 -117 c9 -24 7 -28 -9 -14 -17 14 -20 30 -6 30 5 0 12 -7 15
-16z m-74 -46 c0 -6 -6 -5 -15 2 -8 7 -15 14 -15 16 0 2 7 1 15 -2 8 -4 15
-11 15 -16z"/>
<path d="M8710 6765 c0 -8 5 -15 10 -15 6 0 10 7 10 15 0 8 -4 15 -10 15 -5 0
-10 -7 -10 -15z"/>
<path d="M8650 6736 c0 -9 5 -16 10 -16 6 0 10 4 10 9 0 6 -4 13 -10 16 -5 3
-10 -1 -10 -9z"/>
<path d="M8705 6710 c-15 -17 -16 -20 -3 -20 9 0 19 7 22 16 10 25 1 27 -19 4z"/>
<path d="M8525 6690 c-11 -18 13 -36 31 -25 9 6 16 15 17 20 3 14 -40 18 -48
5z"/>
<path d="M8610 6669 c0 -8 12 -15 30 -16 17 -1 30 2 30 7 0 6 -6 10 -14 10 -8
0 -21 3 -30 6 -10 4 -16 1 -16 -7z"/>
<path d="M8228 6664 c-7 -7 2 -44 11 -44 17 1 33 20 28 34 -6 16 -28 22 -39
10z"/>
<path d="M8380 6610 c0 -5 7 -10 15 -10 8 0 15 5 15 10 0 6 -7 10 -15 10 -8 0
-15 -4 -15 -10z"/>
<path d="M8600 6610 c0 -6 -11 -15 -25 -20 -30 -11 -33 -30 -5 -30 10 0 24 9
30 20 6 11 16 20 23 19 24 -3 37 1 37 11 0 6 -13 10 -30 10 -16 0 -30 -5 -30
-10z"/>
<path d="M8562 6529 c2 -6 8 -10 13 -10 5 0 11 4 13 10 2 6 -4 11 -13 11 -9 0
-15 -5 -13 -11z"/>
<path d="M8475 6450 c-8 -13 4 -32 16 -25 12 8 12 35 0 35 -6 0 -13 -4 -16
-10z"/>
<path d="M2260 5421 c0 -12 6 -21 16 -21 9 0 14 7 12 17 -5 25 -28 28 -28 4z"/>
<path d="M2227 5313 c-4 -3 -7 -12 -7 -20 0 -15 26 -18 34 -4 7 11 -18 33 -27
24z"/>
<path d="M2180 5175 c0 -10 7 -15 18 -13 21 4 19 22 -2 26 -10 2 -16 -3 -16
-13z"/>
<path d="M2144 5059 c-8 -14 18 -31 30 -19 9 9 0 30 -14 30 -5 0 -12 -5 -16
-11z"/>
<path d="M2106 4935 c-3 -9 1 -18 10 -22 19 -7 28 2 21 22 -8 19 -23 19 -31 0z"/>
<path d="M2064 4809 c-8 -14 11 -33 25 -25 6 4 11 14 11 22 0 16 -26 19 -36 3z"/>
<path d="M2027 4684 c-9 -10 2 -24 19 -24 8 0 14 7 14 15 0 15 -21 21 -33 9z"/>
<path d="M1990 4550 c0 -11 7 -20 15 -20 8 0 15 9 15 20 0 11 -7 20 -15 20 -8
0 -15 -9 -15 -20z"/>
<path d="M1952 4424 c4 -21 22 -23 26 -1 2 10 -3 17 -13 17 -10 0 -15 -6 -13
-16z"/>
<path d="M1910 4296 c0 -8 4 -17 9 -20 11 -7 33 18 24 27 -12 12 -33 7 -33 -7z"/>
<path d="M1872 4164 c4 -21 22 -23 26 -1 2 10 -3 17 -13 17 -10 0 -15 -6 -13
-16z"/>
<path d="M1824 4039 c-9 -16 18 -30 33 -17 7 6 10 14 7 19 -7 13 -31 11 -40
-2z"/>
<path d="M1787 3914 c-9 -10 4 -34 19 -34 8 0 14 9 14 20 0 19 -19 27 -33 14z"/>
<path d="M1746 3782 c-8 -13 11 -35 23 -28 16 10 14 36 -3 36 -8 0 -17 -4 -20
-8z"/>
<path d="M1707 3654 c-9 -10 2 -24 19 -24 8 0 14 7 14 15 0 15 -21 21 -33 9z"/>
<path d="M1676 3533 c-12 -12 -6 -33 9 -33 8 0 15 6 15 14 0 17 -14 28 -24 19z"/>
<path d="M8767 5396 c-8 -20 20 -43 35 -28 14 14 3 42 -16 42 -7 0 -16 -6 -19
-14z"/>
<path d="M8823 5253 c-7 -3 -13 -13 -13 -24 0 -23 35 -26 43 -5 7 17 -13 35
-30 29z"/>
<path d="M8857 5086 c-8 -20 20 -43 35 -28 14 14 3 42 -16 42 -7 0 -16 -6 -19
-14z"/>
<path d="M8900 4920 c0 -16 5 -21 23 -18 12 2 22 10 22 18 0 8 -10 16 -22 18
-18 3 -23 -2 -23 -18z"/>
<path d="M8949 4774 c-9 -11 -9 -18 -1 -26 14 -14 42 -3 42 16 0 20 -27 27
-41 10z"/>
<path d="M8997 4623 c-14 -13 -7 -33 11 -33 24 0 32 8 25 26 -5 15 -25 19 -36
7z"/>
<path d="M9034 4465 c-8 -19 12 -36 33 -28 19 7 12 37 -10 41 -9 2 -20 -4 -23
-13z"/>
<path d="M9080 4311 c0 -15 6 -21 21 -21 14 0 19 5 17 17 -5 26 -38 29 -38 4z"/>
<path d="M9120 4159 c0 -14 5 -19 17 -17 26 5 29 38 4 38 -15 0 -21 -6 -21
-21z"/>
<path d="M9167 4034 c-14 -15 -6 -34 14 -34 14 0 19 5 17 17 -3 18 -20 27 -31
17z"/>
<path d="M9205 3891 c-8 -15 3 -31 21 -31 9 0 14 7 12 17 -4 20 -24 28 -33 14z"/>
<path d="M9242 3743 c2 -10 10 -18 18 -18 8 0 16 8 18 18 2 12 -3 17 -18 17
-15 0 -20 -5 -18 -17z"/>
<path d="M9280 3616 c0 -21 21 -31 30 -15 5 7 6 17 4 21 -9 14 -34 9 -34 -6z"/>
<path d="M9320 3485 c0 -8 7 -15 15 -15 8 0 15 7 15 15 0 8 -7 15 -15 15 -8 0
-15 -7 -15 -15z"/>
<path d="M6520 7324 c0 -8 5 -12 10 -9 6 3 10 10 10 16 0 5 -4 9 -10 9 -5 0
-10 -7 -10 -16z"/>
<path d="M6570 7294 c0 -9 5 -14 12 -12 18 6 21 28 4 28 -9 0 -16 -7 -16 -16z"/>
<path d="M6615 7240 c-3 -5 3 -10 14 -10 23 0 36 -16 21 -25 -12 -8 -13 -25
-1 -25 16 0 23 52 9 61 -18 12 -36 11 -43 -1z"/>
<path d="M6580 7200 c0 -5 4 -10 9 -10 6 0 13 5 16 10 3 6 -1 10 -9 10 -9 0
-16 -4 -16 -10z"/>
<path d="M6727 7193 c-4 -3 -7 -11 -7 -17 0 -6 5 -5 12 2 6 6 9 14 7 17 -3 3
-9 2 -12 -2z"/>
<path d="M6681 7161 c-10 -7 -10 -10 -1 -16 6 -4 16 -3 22 3 13 13 -4 23 -21
13z"/>
<path d="M6785 7160 c-3 -5 1 -10 10 -10 9 0 13 5 10 10 -3 6 -8 10 -10 10 -2
0 -7 -4 -10 -10z"/>
<path d="M6716 7143 c-11 -11 -6 -23 9 -23 8 0 15 4 15 9 0 13 -16 22 -24 14z"/>
<path d="M6800 7116 c0 -9 5 -16 10 -16 6 0 10 4 10 9 0 6 -4 13 -10 16 -5 3
-10 -1 -10 -9z"/>
<path d="M6850 7111 c0 -13 29 -35 37 -28 7 8 -15 37 -28 37 -5 0 -9 -4 -9 -9z"/>
<path d="M6625 7090 c-4 -6 3 -10 14 -10 25 0 27 6 6 13 -8 4 -17 2 -20 -3z"/>
<path d="M6706 7091 c-4 -7 -5 -15 -2 -18 9 -9 19 4 14 18 -4 11 -6 11 -12 0z"/>
<path d="M6795 7069 c-10 -15 3 -25 16 -12 7 7 7 13 1 17 -6 3 -14 1 -17 -5z"/>
<path d="M6740 7060 c0 -5 6 -10 14 -10 8 0 18 5 21 10 3 6 -3 10 -14 10 -12
0 -21 -4 -21 -10z"/>
<path d="M6891 7046 c-15 -8 -20 -16 -13 -20 12 -7 52 13 52 26 0 11 -11 9
-39 -6z"/>
<path d="M7277 7028 c-25 -27 -12 -37 14 -11 12 11 17 23 13 25 -5 3 -17 -4
-27 -14z"/>
<path d="M6660 7030 c0 -5 5 -10 10 -10 6 0 10 5 10 10 0 6 -4 10 -10 10 -5 0
-10 -4 -10 -10z"/>
<path d="M7020 7025 c0 -8 4 -15 9 -15 5 0 11 7 15 15 3 9 0 15 -9 15 -8 0
-15 -7 -15 -15z"/>
<path d="M6757 7024 c-7 -7 13 -54 24 -54 16 0 18 18 3 24 -9 4 -14 13 -10 21
5 15 -5 21 -17 9z"/>
<path d="M7155 7020 c-3 -5 1 -10 9 -10 9 0 16 5 16 10 0 6 -4 10 -9 10 -6 0
-13 -4 -16 -10z"/>
<path d="M6681 6994 c0 -11 3 -14 6 -6 3 7 2 16 -1 19 -3 4 -6 -2 -5 -13z"/>
<path d="M6812 6998 c6 -18 28 -21 28 -4 0 9 -7 16 -16 16 -9 0 -14 -5 -12
-12z"/>
<path d="M6930 7000 c0 -5 7 -10 15 -10 8 0 15 5 15 10 0 6 -7 10 -15 10 -8 0
-15 -4 -15 -10z"/>
<path d="M6995 7001 c-3 -5 -1 -12 5 -16 5 -3 10 1 10 9 0 18 -6 21 -15 7z"/>
<path d="M7090 7000 c0 -5 4 -10 9 -10 6 0 13 5 16 10 3 6 -1 10 -9 10 -9 0
-16 -4 -16 -10z"/>
<path d="M7325 7000 c3 -5 10 -10 16 -10 5 0 9 5 9 10 0 6 -7 10 -16 10 -8 0
-12 -4 -9 -10z"/>
<path d="M7416 6989 c-19 -19 -19 -19 2 -19 12 0 22 2 22 4 0 2 3 11 6 20 8
22 -7 19 -30 -5z"/>
<path d="M6902 6973 c-6 -11 -7 -25 -3 -32 6 -9 10 -4 14 16 6 34 2 41 -11 16z"/>
<path d="M7030 6980 c0 -5 5 -10 10 -10 6 0 10 5 10 10 0 6 -4 10 -10 10 -5 0
-10 -4 -10 -10z"/>
<path d="M7480 6986 c0 -2 7 -6 15 -10 8 -3 15 -1 15 4 0 6 -7 10 -15 10 -8 0
-15 -2 -15 -4z"/>
<path d="M7110 6970 c0 -5 9 -10 21 -10 11 0 17 5 14 10 -3 6 -13 10 -21 10
-8 0 -14 -4 -14 -10z"/>
<path d="M6712 6959 c2 -6 8 -10 13 -10 5 0 11 4 13 10 2 6 -4 11 -13 11 -9 0
-15 -5 -13 -11z"/>
<path d="M7250 6960 c0 -5 5 -10 10 -10 6 0 10 5 10 10 0 6 -4 10 -10 10 -5 0
-10 -4 -10 -10z"/>
<path d="M7460 6960 c0 -5 10 -10 23 -10 18 0 19 2 7 10 -19 13 -30 13 -30 0z"/>
<path d="M7324 6949 c-3 -6 -2 -15 2 -19 12 -12 38 5 30 19 -9 14 -23 14 -32
0z"/>
<path d="M7381 6946 c-12 -14 -9 -18 22 -31 42 -17 67 -19 67 -5 0 6 -9 10
-21 10 -11 0 -28 9 -38 21 -15 19 -18 20 -30 5z"/>
<path d="M7010 6940 c0 -5 7 -10 16 -10 8 0 12 5 9 10 -3 6 -10 10 -16 10 -5
0 -9 -4 -9 -10z"/>
<path d="M7090 6936 c0 -8 5 -18 10 -21 6 -3 10 3 10 14 0 12 -4 21 -10 21 -5
0 -10 -6 -10 -14z"/>
<path d="M7570 6940 c0 -5 7 -10 15 -10 8 0 15 5 15 10 0 6 -7 10 -15 10 -8 0
-15 -4 -15 -10z"/>
<path d="M7210 6930 c0 -5 5 -10 10 -10 6 0 10 5 10 10 0 6 -4 10 -10 10 -5 0
-10 -4 -10 -10z"/>
<path d="M6720 6920 c0 -5 12 -10 28 -10 21 0 24 2 12 10 -20 13 -40 13 -40 0z"/>
<path d="M6810 6920 c0 -5 12 -10 28 -10 21 0 24 2 12 10 -20 13 -40 13 -40 0z"/>
<path d="M7498 6923 c-31 -8 -20 -24 15 -22 17 1 42 -1 55 -5 14 -5 22 -3 22
4 0 6 -6 12 -12 14 -29 9 -64 13 -80 9z"/>
<path d="M6940 6911 c0 -5 11 -8 25 -8 14 0 25 3 25 8 0 5 -11 9 -25 9 -14 0
-25 -4 -25 -9z"/>
<path d="M7150 6911 c0 -12 28 -22 35 -12 3 5 -2 12 -11 15 -21 8 -24 8 -24
-3z"/>
<path d="M7635 6911 c-7 -12 12 -24 25 -16 11 7 4 25 -10 25 -5 0 -11 -4 -15
-9z"/>
<path d="M7270 6901 c0 -5 7 -11 15 -15 9 -3 15 0 15 9 0 8 -7 15 -15 15 -8 0
-15 -4 -15 -9z"/>
<path d="M7357 6893 c-4 -3 -7 -11 -7 -17 0 -6 5 -5 12 2 6 6 9 14 7 17 -3 3
-9 2 -12 -2z"/>
<path d="M6780 6880 c0 -5 7 -10 15 -10 8 0 15 5 15 10 0 6 -7 10 -15 10 -8 0
-15 -4 -15 -10z"/>
<path d="M7010 6880 c0 -5 7 -10 16 -10 8 0 12 5 9 10 -3 6 -10 10 -16 10 -5
0 -9 -4 -9 -10z"/>
<path d="M7524 6859 c2 -18 8 -35 15 -37 6 -2 11 -10 11 -18 0 -8 9 -14 20
-14 26 0 25 18 -2 47 -12 13 -17 23 -11 23 5 0 18 -9 28 -20 10 -11 24 -20 31
-20 17 0 64 22 64 29 -1 13 -69 40 -76 30 -6 -11 -33 -8 -67 6 -15 6 -17 2
-13 -26z"/>
<path d="M7100 6870 c0 -5 5 -10 10 -10 6 0 10 5 10 10 0 6 -4 10 -10 10 -5 0
-10 -4 -10 -10z"/>
<path d="M7440 6866 c0 -9 7 -16 16 -16 9 0 14 5 12 12 -6 18 -28 21 -28 4z"/>
<path d="M6900 6850 c0 -7 24 -20 36 -20 13 0 1 19 -16 23 -11 3 -20 2 -20 -3z"/>
<path d="M7260 6853 c0 -6 -3 -18 -6 -27 -3 -9 -1 -16 5 -16 17 0 25 30 12 43
-8 8 -11 8 -11 0z"/>
<path d="M7355 6850 c-3 -5 -12 -7 -20 -3 -11 4 -15 -2 -15 -21 0 -17 5 -26
15 -26 10 0 15 7 13 17 -2 10 3 18 10 19 6 1 17 2 22 3 6 0 10 6 10 11 0 13
-27 13 -35 0z"/>
<path d="M6836 6836 c7 -19 38 -22 32 -3 -3 6 -12 13 -21 15 -12 2 -15 -1 -11
-12z"/>
<path d="M7175 6839 c-4 -6 -5 -13 -2 -16 7 -7 27 6 27 18 0 12 -17 12 -25 -2z"/>
<path d="M7420 6840 c0 -6 7 -10 15 -10 8 0 15 2 15 4 0 2 -7 6 -15 10 -8 3
-15 1 -15 -4z"/>
<path d="M7000 6830 c8 -5 20 -10 25 -10 6 0 3 5 -5 10 -8 5 -19 10 -25 10 -5
0 -3 -5 5 -10z"/>
<path d="M7477 6810 c-3 -12 -13 -20 -26 -20 -12 0 -21 -5 -21 -11 0 -7 9 -9
23 -5 12 3 30 6 40 6 13 0 17 6 15 22 -4 29 -24 34 -31 8z"/>
<path d="M7070 6804 c0 -8 5 -12 10 -9 6 3 10 10 10 16 0 5 -4 9 -10 9 -5 0
-10 -7 -10 -16z"/>
<path d="M7670 6811 c0 -6 16 -22 35 -36 l34 -27 -26 -35 c-19 -25 -28 -31
-34 -21 -13 20 -11 25 12 31 19 5 24 30 6 28 -4 -1 -18 10 -31 24 -13 14 -27
25 -32 25 -12 0 -54 -66 -48 -73 3 -3 22 -3 41 0 34 6 35 5 28 -18 -10 -33 -8
-32 -48 -10 -20 11 -39 16 -42 12 -9 -16 6 -40 28 -43 18 -3 14 -7 -20 -23
-47 -21 -53 -31 -24 -40 13 -4 29 5 54 30 35 35 57 39 57 11 0 -8 -16 -24 -35
-37 -19 -13 -36 -33 -37 -43 -4 -26 -28 -33 -28 -8 0 15 -9 21 -35 26 -19 4
-35 11 -35 16 0 17 -27 11 -34 -7 -3 -10 -8 -23 -11 -29 -8 -17 23 -25 44 -12
24 15 46 5 63 -28 17 -35 44 -46 35 -15 -7 28 19 28 34 -1 17 -31 68 -72 98
-79 14 -3 25 -10 24 -16 -1 -6 16 -30 37 -53 22 -24 40 -46 40 -49 0 -3 12
-11 26 -18 21 -10 29 -10 41 2 8 8 10 15 5 15 -13 0 -22 63 -11 74 15 17 10
36 -10 36 -11 0 -23 5 -26 10 -3 6 -17 10 -31 10 -13 0 -24 -4 -24 -10 0 -5
-7 -10 -15 -10 -11 0 -12 6 -6 23 9 22 16 24 79 11 24 -5 32 -3 32 8 0 8 -3
18 -7 22 -4 4 -8 13 -8 19 -1 7 -5 24 -9 39 -7 23 -12 26 -41 21 -44 -7 -54
13 -10 21 19 4 37 11 40 17 4 5 1 32 -6 59 -11 43 -16 49 -33 45 -20 -6 -20
-5 -2 9 18 14 14 42 -5 31 -17 -11 -31 6 -18 21 9 11 7 14 -10 14 -11 0 -21 6
-21 14 0 7 -14 16 -31 20 -42 8 -49 8 -49 -3z m90 -110 c0 -5 -9 -11 -20 -14
-20 -5 -26 3 -13 16 9 10 33 8 33 -2z m19 -47 c17 -4 31 -10 31 -14 0 -13 -39
-19 -43 -6 -3 8 -8 8 -17 0 -9 -9 -9 -16 2 -33 12 -19 10 -24 -17 -46 -17 -13
-38 -24 -47 -25 -11 0 -18 -8 -18 -20 0 -11 -5 -20 -11 -20 -5 0 -7 4 -4 10 3
5 -3 15 -15 22 -21 14 -27 43 -9 53 5 4 19 -1 30 -11 19 -17 19 -16 13 14 -5
25 -3 32 10 32 9 0 16 -8 16 -20 0 -31 17 -24 22 10 3 19 0 31 -9 35 -8 2 -11
9 -8 15 7 12 29 13 74 4z m-17 -139 c-2 -14 -8 -25 -13 -25 -10 0 -12 34 -2
43 13 14 20 6 15 -18z m68 -1 c0 -17 -22 -14 -28 4 -2 7 3 12 12 12 9 0 16 -7
16 -16z m-100 -39 c7 -9 11 -18 8 -21 -8 -7 -58 14 -58 26 0 15 36 12 50 -5z"/>
<path d="M7160 6791 c8 -5 30 -11 48 -14 24 -5 32 -3 32 8 0 11 -12 15 -47 15
-31 -1 -43 -4 -33 -9z"/>
<path d="M7381 6786 c-9 -10 -9 -16 -1 -21 12 -7 40 11 40 26 0 14 -26 10 -39
-5z"/>
<path d="M6908 6780 c12 -5 22 -14 22 -20 0 -5 11 -10 25 -10 14 0 25 5 25 10
0 6 -11 10 -24 10 -14 0 -28 5 -31 10 -3 6 -14 10 -23 9 -12 0 -11 -3 6 -9z"/>
<path d="M7030 6782 c0 -12 19 -26 26 -19 2 2 -2 10 -11 17 -9 8 -15 8 -15 2z"/>
<path d="M7280 6770 c0 -5 7 -10 15 -10 8 0 15 5 15 10 0 6 -7 10 -15 10 -8 0
-15 -4 -15 -10z"/>
<path d="M7090 6750 c0 -5 7 -10 15 -10 8 0 15 5 15 10 0 6 -7 10 -15 10 -8 0
-15 -4 -15 -10z"/>
<path d="M7330 6751 c0 -5 7 -11 15 -15 9 -3 15 0 15 9 0 8 -7 15 -15 15 -8 0
-15 -4 -15 -9z"/>
<path d="M7468 6749 c-20 -11 -24 -29 -7 -29 6 0 17 6 25 14 25 26 14 34 -18
15z"/>
<path d="M7532 6741 c-35 -29 -26 -42 13 -20 19 12 35 25 35 30 0 15 -26 10
-48 -10z"/>
<path d="M7145 6740 c3 -5 11 -10 16 -10 6 0 7 5 4 10 -3 6 -11 10 -16 10 -6
0 -7 -4 -4 -10z"/>
<path d="M7023 6729 c-13 -5 -23 -13 -23 -19 0 -16 40 -12 47 5 8 21 2 24 -24
14z"/>
<path d="M7250 6732 c0 -14 11 -21 26 -15 8 3 11 9 8 14 -7 11 -34 12 -34 1z"/>
<path d="M7190 6720 c0 -5 7 -10 16 -10 8 0 12 5 9 10 -3 6 -10 10 -16 10 -5
0 -9 -4 -9 -10z"/>
<path d="M7375 6720 c-11 -4 -23 -6 -27 -3 -5 2 -8 -1 -8 -6 0 -13 57 -15 65
-2 8 14 -7 20 -30 11z"/>
<path d="M7100 6703 c0 -10 5 -25 10 -33 7 -11 5 -17 -8 -21 -13 -5 -11 -7 9
-11 21 -4 25 -1 23 16 -1 12 -3 31 -3 44 -1 26 -31 31 -31 5z"/>
<path d="M7430 6695 c0 -8 5 -15 10 -15 6 0 10 7 10 15 0 8 -4 15 -10 15 -5 0
-10 -7 -10 -15z"/>
<path d="M7526 6691 c-3 -5 -15 -7 -26 -4 -14 4 -20 0 -20 -11 0 -9 -4 -16
-10 -16 -5 0 -10 -7 -10 -15 0 -18 16 -20 23 -2 3 8 10 6 22 -8 16 -20 16 -19
12 8 -3 21 0 27 14 27 11 0 19 7 19 15 0 16 -16 20 -24 6z"/>
<path d="M7030 6680 c0 -5 7 -10 15 -10 8 0 15 5 15 10 0 6 -7 10 -15 10 -8 0
-15 -4 -15 -10z"/>
<path d="M7225 6679 c-10 -15 1 -23 20 -15 9 3 13 10 10 16 -8 13 -22 13 -30
-1z"/>
<path d="M7315 6670 c-3 -5 -2 -10 4 -10 6 0 8 -6 5 -13 -2 -7 2 -21 11 -32
14 -20 15 -20 21 3 3 12 11 22 16 22 13 0 5 21 -7 22 -6 0 -18 4 -27 9 -10 6
-19 5 -23 -1z"/>
<path d="M7392 6668 c3 -7 13 -15 22 -16 12 -3 17 1 14 10 -3 7 -13 15 -22 16
-12 3 -17 -1 -14 -10z"/>
<path d="M7394 6632 c-15 -10 -27 -62 -14 -62 5 0 10 7 10 16 0 9 7 22 17 29
17 13 5 29 -13 17z"/>
<path d="M7202 6618 c3 -7 15 -15 28 -16 21 -3 22 -2 11 12 -16 19 -44 21 -39
4z"/>
<path d="M7290 6600 c0 -5 5 -10 10 -10 6 0 10 5 10 10 0 6 -4 10 -10 10 -5 0
-10 -4 -10 -10z"/>
<path d="M2590 6950 c6 -11 13 -20 16 -20 2 0 0 9 -6 20 -6 11 -13 20 -16 20
-2 0 0 -9 6 -20z"/>
<path d="M7653 6094 c-8 -21 13 -42 28 -27 13 13 5 43 -11 43 -6 0 -13 -7 -17
-16z"/>
<path d="M7577 5974 c-16 -16 -6 -35 16 -32 12 2 22 10 22 18 0 16 -26 25 -38
14z"/>
<path d="M7500 5831 c0 -15 6 -21 21 -21 14 0 19 5 17 17 -5 26 -38 29 -38 4z"/>
<path d="M7425 5710 c-4 -7 -3 -16 3 -22 14 -14 45 -2 40 15 -6 16 -34 21 -43
7z"/>
<path d="M2717 6810 c3 -11 9 -20 15 -20 5 0 4 9 -2 20 -6 11 -12 20 -14 20
-2 0 -2 -9 1 -20z"/>
<path d="M2750 6710 c0 -5 7 -27 14 -47 8 -21 20 -58 26 -82 6 -23 14 -41 17
-38 5 6 -45 177 -52 177 -3 0 -5 -4 -5 -10z"/>
<path d="M2811 6525 c1 -19 18 -51 18 -35 0 8 -4 22 -9 30 -5 8 -9 11 -9 5z"/>
<path d="M2694 6500 c2 -8 12 -39 21 -68 9 -29 19 -52 21 -49 6 6 -26 110 -38
122 -6 7 -8 5 -4 -5z"/>
<path d="M3280 6431 c0 -6 4 -13 10 -16 6 -3 7 1 4 9 -7 18 -14 21 -14 7z"/>
<path d="M3310 6356 c0 -15 -4 -25 -10 -21 -6 4 -7 -1 -3 -11 4 -11 8 -13 11
-6 3 9 9 9 23 1 20 -10 20 -10 3 23 -22 45 -24 46 -24 14z"/>
<path d="M4370 5698 c1 -94 14 -152 46 -194 32 -41 116 -84 164 -84 21 0 51
-5 69 -11 18 -6 34 -9 37 -6 13 12 -18 154 -44 200 -32 59 -71 91 -143 116
-30 10 -71 26 -91 35 l-38 16 0 -72z m149 -17 c11 -7 7 -13 -18 -25 -18 -10
-37 -28 -43 -41 -13 -29 -23 -32 -32 -10 -18 48 49 104 93 76z m23 -63 c8 -21
-2 -38 -23 -38 -19 0 -27 29 -12 43 11 11 31 8 35 -5z m48 -77 c7 -15 6 -23
-5 -35 -20 -20 -45 -10 -45 18 0 40 32 50 50 17z m44 -68 c-36 -26 -49 -14
-18 18 24 26 30 28 33 13 2 -10 -5 -24 -15 -31z"/>
<path d="M3440 6401 c0 -6 4 -13 10 -16 6 -3 7 1 4 9 -7 18 -14 21 -14 7z"/>
<path d="M4700 4956 c0 -2 7 -7 16 -10 8 -3 12 -2 9 4 -6 10 -25 14 -25 6z"/>
<path d="M4791 4516 c16 -14 139 -73 139 -66 0 4 -29 22 -65 39 -59 28 -86 38
-74 27z"/>
<path d="M4870 4435 c0 -2 18 -14 40 -25 50 -25 53 -19 4 9 -36 22 -44 24 -44
16z"/>
<path d="M5080 4130 c0 -5 5 -10 11 -10 5 0 7 5 4 10 -3 6 -8 10 -11 10 -2 0
-4 -4 -4 -10z"/>
<path d="M4780 4696 c0 -2 7 -7 16 -10 8 -3 12 -2 9 4 -6 10 -25 14 -25 6z"/>
<path d="M4927 4649 c7 -7 15 -10 18 -7 3 3 -2 9 -12 12 -14 6 -15 5 -6 -5z"/>
<path d="M4880 4065 c0 -7 61 -37 66 -33 2 3 -12 12 -31 21 -19 9 -35 15 -35
12z"/>
<path d="M5352 4768 c5 -15 28 -23 28 -10 0 5 -7 13 -16 16 -10 4 -14 1 -12
-6z"/>
<path d="M5276 4761 c-3 -5 1 -11 9 -15 15 -6 29 7 18 18 -9 9 -21 8 -27 -3z"/>
<path d="M5225 4740 c-8 -13 15 -24 27 -12 6 6 4 11 -6 15 -8 3 -18 2 -21 -3z"/>
<path d="M5426 4733 c-11 -11 -6 -23 9 -23 8 0 15 4 15 9 0 13 -16 22 -24 14z"/>
<path d="M5286 4711 c-4 -5 -2 -12 3 -15 5 -4 12 -2 15 3 4 5 2 12 -3 15 -5 4
-12 2 -15 -3z"/>
<path d="M5375 4691 c-7 -12 12 -24 25 -16 11 7 4 25 -10 25 -5 0 -11 -4 -15
-9z"/>
<path d="M5451 4671 c-10 -7 -10 -10 -1 -16 6 -4 16 -3 22 3 13 13 -4 23 -21
13z"/>
<path d="M5255 4660 c-3 -5 1 -10 9 -10 9 0 16 5 16 10 0 6 -4 10 -9 10 -6 0
-13 -4 -16 -10z"/>
<path d="M5340 4650 c0 -5 5 -10 10 -10 6 0 10 5 10 10 0 6 -4 10 -10 10 -5 0
-10 -4 -10 -10z"/>
<path d="M5302 4629 c2 -7 10 -15 17 -17 8 -3 12 1 9 9 -2 7 -10 15 -17 17 -8
3 -12 -1 -9 -9z"/>
<path d="M5386 4613 c-11 -11 -6 -23 9 -23 8 0 15 4 15 9 0 13 -16 22 -24 14z"/>
<path d="M5500 4610 c0 -5 5 -10 10 -10 6 0 10 5 10 10 0 6 -4 10 -10 10 -5 0
-10 -4 -10 -10z"/>
<path d="M5428 4588 c9 -9 15 -9 24 0 9 9 7 12 -12 12 -19 0 -21 -3 -12 -12z"/>
<path d="M5320 4570 c0 -5 7 -10 15 -10 8 0 15 5 15 10 0 6 -7 10 -15 10 -8 0
-15 -4 -15 -10z"/>
<path d="M5422 4559 c2 -6 8 -10 13 -10 5 0 11 4 13 10 2 6 -4 11 -13 11 -9 0
-15 -5 -13 -11z"/>
<path d="M5260 4550 c0 -5 9 -10 21 -10 11 0 17 5 14 10 -3 6 -13 10 -21 10
-8 0 -14 -4 -14 -10z"/>
<path d="M5535 4530 c-3 -5 1 -10 10 -10 9 0 13 5 10 10 -3 6 -8 10 -10 10 -2
0 -7 -4 -10 -10z"/>
<path d="M5490 4520 c0 -5 7 -10 16 -10 8 0 12 5 9 10 -3 6 -10 10 -16 10 -5
0 -9 -4 -9 -10z"/>
<path d="M5338 4513 c7 -3 16 -2 19 1 4 3 -2 6 -13 5 -11 0 -14 -3 -6 -6z"/>
<path d="M5410 4500 c0 -5 5 -10 10 -10 6 0 10 5 10 10 0 6 -4 10 -10 10 -5 0
-10 -4 -10 -10z"/>
<path d="M5556 4501 c-3 -5 1 -11 9 -15 15 -6 29 7 18 18 -9 9 -21 8 -27 -3z"/>
<path d="M5318 4443 c6 -2 18 -2 25 0 6 3 1 5 -13 5 -14 0 -19 -2 -12 -5z"/>
<path d="M5392 4439 c2 -6 8 -10 13 -10 5 0 11 4 13 10 2 6 -4 11 -13 11 -9 0
-15 -5 -13 -11z"/>
<path d="M5478 4443 c7 -3 16 -2 19 1 4 3 -2 6 -13 5 -11 0 -14 -3 -6 -6z"/>
<path d="M5610 4430 c0 -5 7 -10 15 -10 8 0 15 5 15 10 0 6 -7 10 -15 10 -8 0
-15 -4 -15 -10z"/>
<path d="M5535 4420 c-3 -5 -1 -10 4 -10 6 0 11 5 11 10 0 6 -2 10 -4 10 -3 0
-8 -4 -11 -10z"/>
<path d="M5455 4399 c-10 -15 3 -25 16 -12 7 7 7 13 1 17 -6 3 -14 1 -17 -5z"/>
<path d="M5600 4380 c0 -5 5 -10 10 -10 6 0 10 5 10 10 0 6 -4 10 -10 10 -5 0
-10 -4 -10 -10z"/>
<path d="M5665 4380 c3 -5 10 -10 16 -10 5 0 9 5 9 10 0 6 -7 10 -16 10 -8 0
-12 -4 -9 -10z"/>
<path d="M5353 4363 c-18 -7 -16 -23 2 -23 8 0 15 7 15 15 0 8 -1 15 -2 14 -2
0 -9 -3 -15 -6z"/>
<path d="M5398 4363 c7 -3 16 -2 19 1 4 3 -2 6 -13 5 -11 0 -14 -3 -6 -6z"/>
<path d="M5550 4351 c0 -6 5 -13 10 -16 6 -3 10 1 10 9 0 9 -4 16 -10 16 -5 0
-10 -4 -10 -9z"/>
<path d="M5460 4340 c0 -5 7 -10 16 -10 8 0 12 5 9 10 -3 6 -10 10 -16 10 -5
0 -9 -4 -9 -10z"/>
<path d="M5630 4341 c0 -5 7 -11 15 -15 9 -3 15 0 15 9 0 8 -7 15 -15 15 -8 0
-15 -4 -15 -9z"/>
<path d="M5690 4306 c0 -9 7 -16 16 -16 9 0 14 5 12 12 -6 18 -28 21 -28 4z"/>
<path d="M5596 4292 c-3 -6 -1 -14 5 -17 15 -10 25 3 12 16 -7 7 -13 7 -17 1z"/>
<path d="M5395 4279 c-10 -15 3 -25 16 -12 7 7 7 13 1 17 -6 3 -14 1 -17 -5z"/>
<path d="M5470 4270 c0 -5 7 -10 15 -10 8 0 15 5 15 10 0 6 -7 10 -15 10 -8 0
-15 -4 -15 -10z"/>
<path d="M5750 4271 c0 -5 5 -13 10 -16 6 -3 10 -2 10 4 0 5 -4 13 -10 16 -5
3 -10 2 -10 -4z"/>
<path d="M5555 4250 c-3 -5 1 -10 9 -10 9 0 16 5 16 10 0 6 -4 10 -9 10 -6 0
-13 -4 -16 -10z"/>
<path d="M5390 4235 c0 -9 6 -12 15 -9 8 4 12 10 9 15 -8 14 -24 10 -24 -6z"/>
<path d="M5625 4240 c-3 -5 1 -10 9 -10 9 0 16 5 16 10 0 6 -4 10 -9 10 -6 0
-13 -4 -16 -10z"/>
<path d="M5690 4240 c0 -5 5 -10 10 -10 6 0 10 -7 10 -15 0 -8 7 -15 15 -15
20 0 19 6 -5 30 -22 22 -30 25 -30 10z"/>
<path d="M5365 4200 c-3 -5 1 -10 9 -10 9 0 16 5 16 10 0 6 -4 10 -9 10 -6 0
-13 -4 -16 -10z"/>
<path d="M5463 4191 c-12 -18 -8 -31 9 -31 4 0 8 7 8 15 0 8 5 15 10 15 6 0
10 5 10 10 0 17 -25 11 -37 -9z"/>
<path d="M5782 4199 c2 -6 8 -10 13 -10 5 0 11 4 13 10 2 6 -4 11 -13 11 -9 0
-15 -5 -13 -11z"/>
<path d="M5565 4190 c-3 -5 3 -10 14 -10 12 0 21 5 21 10 0 6 -6 10 -14 10 -8
0 -18 -4 -21 -10z"/>
<path d="M5774 4156 c-8 -22 -2 -27 16 -16 12 7 12 12 3 21 -10 10 -14 9 -19
-5z"/>
<path d="M5565 4150 l-30 -7 28 -8 c17 -4 33 -3 39 3 14 14 -2 20 -37 12z"/>
<path d="M5650 4150 c-13 -8 -12 -10 3 -10 9 0 17 5 17 10 0 12 -1 12 -20 0z"/>
<path d="M5705 4140 c3 -5 8 -10 11 -10 2 0 4 5 4 10 0 6 -5 10 -11 10 -5 0
-7 -4 -4 -10z"/>
<path d="M5496 4122 c-3 -6 -1 -14 5 -17 15 -10 25 3 12 16 -7 7 -13 7 -17 1z"/>
<path d="M5446 4102 c-8 -13 0 -46 12 -50 8 -2 12 8 12 27 0 29 -13 41 -24 23z"/>
<path d="M5770 4096 c0 -17 30 -30 42 -18 5 5 -3 14 -17 20 -20 9 -25 9 -25
-2z"/>
<path d="M5840 4100 c0 -5 7 -10 15 -10 8 0 15 5 15 10 0 6 -7 10 -15 10 -8 0
-15 -4 -15 -10z"/>
<path d="M5380 4090 c0 -5 5 -10 10 -10 6 0 10 5 10 10 0 6 -4 10 -10 10 -5 0
-10 -4 -10 -10z"/>
<path d="M5632 4091 c-16 -9 -5 -41 14 -41 15 0 16 6 6 32 -4 11 -12 14 -20 9z"/>
<path d="M5704 4068 c3 -18 5 -35 5 -38 1 -3 5 1 10 8 10 16 2 62 -10 62 -5 0
-7 -15 -5 -32z"/>
<path d="M5580 4057 c0 -8 7 -17 15 -21 8 -3 15 -2 15 3 0 5 -7 14 -15 21 -12
10 -15 10 -15 -3z"/>
<path d="M5760 4050 c0 -5 5 -10 10 -10 6 0 10 5 10 10 0 6 -4 10 -10 10 -5 0
-10 -4 -10 -10z"/>
<path d="M5475 4030 c-4 -6 5 -10 19 -10 14 0 26 5 26 10 0 6 -9 10 -19 10
-11 0 -23 -4 -26 -10z"/>
<path d="M5421 4006 c-14 -17 -7 -36 15 -36 15 0 16 6 5 33 -6 17 -8 17 -20 3z"/>
<path d="M5832 3998 c6 -18 28 -21 28 -4 0 9 -7 16 -16 16 -9 0 -14 -5 -12
-12z"/>
<path d="M5898 4003 c7 -3 16 -2 19 1 4 3 -2 6 -13 5 -11 0 -14 -3 -6 -6z"/>
<path d="M5676 3981 c-4 -5 -2 -12 3 -15 5 -4 12 -2 15 3 4 5 2 12 -3 15 -5 4
-12 2 -15 -3z"/>
<path d="M5620 3970 c0 -5 7 -10 15 -10 8 0 15 5 15 10 0 6 -7 10 -15 10 -8 0
-15 -4 -15 -10z"/>
<path d="M5522 3958 c5 -15 28 -23 28 -10 0 5 -7 13 -16 16 -10 4 -14 1 -12
-6z"/>
<path d="M5570 3961 c0 -5 5 -13 10 -16 6 -3 10 -2 10 4 0 5 -4 13 -10 16 -5
3 -10 2 -10 -4z"/>
<path d="M5752 3953 c5 -24 27 -28 25 -4 -1 12 -7 21 -15 21 -7 0 -12 -8 -10
-17z"/>
<path d="M5885 3950 c-3 -5 3 -10 15 -10 12 0 18 5 15 10 -3 6 -10 10 -15 10
-5 0 -12 -4 -15 -10z"/>
<path d="M5820 3920 c-6 -11 -9 -20 -8 -21 23 -5 68 -5 68 0 0 7 -37 41 -45
41 -2 0 -9 -9 -15 -20z"/>
<path d="M5465 3920 c-3 -5 1 -10 9 -10 9 0 16 5 16 10 0 6 -4 10 -9 10 -6 0
-13 -4 -16 -10z"/>
<path d="M5684 3898 c-8 -12 4 -24 34 -33 15 -4 22 -2 22 7 0 17 -48 40 -56
26z"/>
<path d="M5945 3900 c3 -5 10 -10 16 -10 5 0 9 5 9 10 0 6 -7 10 -16 10 -8 0
-12 -4 -9 -10z"/>
<path d="M5615 3890 c-3 -5 1 -10 10 -10 9 0 13 5 10 10 -3 6 -8 10 -10 10 -2
0 -7 -4 -10 -10z"/>
<path d="M5560 3880 c0 -5 7 -10 15 -10 8 0 15 5 15 10 0 6 -7 10 -15 10 -8 0
-15 -4 -15 -10z"/>
<path d="M5452 3869 c2 -6 8 -10 13 -10 5 0 11 4 13 10 2 6 -4 11 -13 11 -9 0
-15 -5 -13 -11z"/>
<path d="M5800 3860 c0 -5 5 -10 10 -10 6 0 10 5 10 10 0 6 -4 10 -10 10 -5 0
-10 -4 -10 -10z"/>
<path d="M5898 3853 c-19 -5 -24 -18 -10 -27 14 -8 53 6 49 17 -4 13 -16 16
-39 10z"/>
<path d="M5740 3814 c0 -8 5 -12 10 -9 6 3 10 10 10 16 0 5 -4 9 -10 9 -5 0
-10 -7 -10 -16z"/>
<path d="M5647 3814 c-4 -4 -4 -10 -1 -15 6 -10 34 0 34 12 0 10 -24 12 -33 3z"/>
<path d="M5795 3800 c-3 -5 1 -10 9 -10 9 0 16 5 16 10 0 6 -4 10 -9 10 -6 0
-13 -4 -16 -10z"/>
<path d="M5990 3800 c0 -5 5 -10 10 -10 6 0 10 5 10 10 0 6 -4 10 -10 10 -5 0
-10 -4 -10 -10z"/>
<path d="M5628 3766 c-10 -7 -18 -17 -18 -22 0 -4 5 -3 12 4 7 7 20 12 29 12
10 0 21 5 24 10 9 15 -27 12 -47 -4z"/>
<path d="M5520 3760 c0 -5 4 -10 9 -10 6 0 13 5 16 10 3 6 -1 10 -9 10 -9 0
-16 -4 -16 -10z"/>
<path d="M5690 3760 c0 -5 5 -10 10 -10 6 0 10 5 10 10 0 6 -4 10 -10 10 -5 0
-10 -4 -10 -10z"/>
<path d="M5855 3760 c3 -5 10 -10 16 -10 5 0 9 5 9 10 0 6 -7 10 -16 10 -8 0
-12 -4 -9 -10z"/>
<path d="M5930 3750 c0 -5 7 -10 15 -10 8 0 15 5 15 10 0 6 -7 10 -15 10 -8 0
-15 -4 -15 -10z"/>
<path d="M5992 3739 c2 -6 8 -10 13 -10 5 0 11 4 13 10 2 6 -4 11 -13 11 -9 0
-15 -5 -13 -11z"/>
<path d="M5795 3730 c-3 -5 1 -10 9 -10 8 0 18 5 21 10 3 6 -1 10 -9 10 -8 0
-18 -4 -21 -10z"/>
<path d="M5880 3710 c0 -5 7 -10 15 -10 8 0 15 5 15 10 0 6 -7 10 -15 10 -8 0
-15 -4 -15 -10z"/>
<path d="M5750 3700 c0 -5 7 -10 15 -10 8 0 15 5 15 10 0 6 -7 10 -15 10 -8 0
-15 -4 -15 -10z"/>
<path d="M5685 3689 c-10 -15 3 -25 16 -12 7 7 7 13 1 17 -6 3 -14 1 -17 -5z"/>
<path d="M5941 3691 c-10 -6 -10 -10 -1 -16 13 -8 24 -1 19 14 -3 6 -10 7 -18
2z"/>
<path d="M6013 3693 c-25 -5 -30 -18 -11 -29 6 -4 14 -2 16 4 2 7 17 12 33 12
18 0 28 4 24 10 -6 10 -22 11 -62 3z"/>
<path d="M5615 3680 c-3 -5 1 -10 9 -10 9 0 16 5 16 10 0 6 -4 10 -9 10 -6 0
-13 -4 -16 -10z"/>
<path d="M5820 3671 c0 -17 18 -21 24 -6 3 9 0 15 -9 15 -8 0 -15 -4 -15 -9z"/>
<path d="M5915 3651 c-3 -5 -1 -12 5 -16 12 -7 30 2 30 16 0 12 -27 12 -35 0z"/>
<path d="M5635 3640 c-3 -5 3 -10 14 -10 12 0 21 5 21 10 0 6 -6 10 -14 10 -8
0 -18 -4 -21 -10z"/>
<path d="M5821 3641 c-34 -9 -39 -31 -7 -31 14 0 26 5 26 10 0 6 7 10 15 10 8
0 15 5 15 10 0 11 -13 11 -49 1z"/>
<path d="M5995 3641 c-6 -11 9 -23 19 -14 9 9 7 23 -3 23 -6 0 -12 -4 -16 -9z"/>
<path d="M5700 3625 c0 -9 6 -12 15 -9 8 4 15 10 15 15 0 5 -7 9 -15 9 -8 0
-15 -7 -15 -15z"/>
<path d="M6040 3630 c0 -5 4 -10 9 -10 6 0 13 5 16 10 3 6 -1 10 -9 10 -9 0
-16 -4 -16 -10z"/>
<path d="M5940 3610 c0 -5 7 -10 15 -10 8 0 15 5 15 10 0 6 -7 10 -15 10 -8 0
-15 -4 -15 -10z"/>
<path d="M5880 3585 c-21 -11 -22 -15 -8 -20 20 -8 61 12 53 26 -8 12 -15 11
-45 -6z"/>
<path d="M6008 3593 c7 -3 16 -2 19 1 4 3 -2 6 -13 5 -11 0 -14 -3 -6 -6z"/>
<path d="M6110 3565 c0 -9 5 -15 11 -13 6 2 11 8 11 13 0 5 -5 11 -11 13 -6 2
-11 -4 -11 -13z"/>
<path d="M5770 3550 c0 -5 4 -10 9 -10 6 0 13 5 16 10 3 6 -1 10 -9 10 -9 0
-16 -4 -16 -10z"/>
<path d="M5985 3540 c-3 -5 3 -10 15 -10 12 0 18 5 15 10 -3 6 -10 10 -15 10
-5 0 -12 -4 -15 -10z"/>
<path d="M6050 3535 c0 -16 16 -20 24 -6 3 5 -1 11 -9 15 -9 3 -15 0 -15 -9z"/>
<path d="M5860 3511 c0 -15 49 -19 61 -5 9 11 5 14 -25 14 -20 0 -36 -4 -36
-9z"/>
<path d="M6157 3503 c-3 -5 -2 -15 2 -22 7 -10 10 -10 16 -1 4 6 3 16 -3 22
-5 5 -12 6 -15 1z"/>
<path d="M5970 3492 c0 -5 -11 -15 -25 -22 -22 -12 -35 -40 -19 -40 25 0 77
48 68 62 -7 11 -24 10 -24 0z"/>
<path d="M6090 3490 c0 -5 7 -10 16 -10 8 0 12 5 9 10 -3 6 -10 10 -16 10 -5
0 -9 -4 -9 -10z"/>
<path d="M6055 3450 c4 -6 11 -8 16 -5 14 9 11 15 -7 15 -8 0 -12 -5 -9 -10z"/>
<path d="M6186 3433 c-11 -11 -6 -23 9 -23 8 0 15 4 15 9 0 13 -16 22 -24 14z"/>
<path d="M6108 3403 c-32 -20 -44 -43 -23 -43 17 0 55 35 55 50 0 13 0 13 -32
-7z"/>
<path d="M6000 3401 c0 -11 26 -22 34 -14 12 12 5 23 -14 23 -11 0 -20 -4 -20
-9z"/>
<path d="M5938 3378 c9 -9 15 -9 24 0 9 9 7 12 -12 12 -19 0 -21 -3 -12 -12z"/>
<path d="M6190 3360 c0 -5 7 -10 16 -10 8 0 12 5 9 10 -3 6 -10 10 -16 10 -5
0 -9 -4 -9 -10z"/>
<path d="M6235 3360 c3 -5 11 -10 16 -10 6 0 7 5 4 10 -3 6 -11 10 -16 10 -6
0 -7 -4 -4 -10z"/>
<path d="M5980 3320 c0 -5 5 -10 10 -10 6 0 10 5 10 10 0 6 -4 10 -10 10 -5 0
-10 -4 -10 -10z"/>
<path d="M6060 3310 c0 -5 5 -10 10 -10 6 0 10 5 10 10 0 6 -4 10 -10 10 -5 0
-10 -4 -10 -10z"/>
<path d="M6175 3310 c3 -5 10 -10 16 -10 5 0 9 5 9 10 0 6 -7 10 -16 10 -8 0
-12 -4 -9 -10z"/>
<path d="M6128 3293 c7 -3 16 -2 19 1 4 3 -2 6 -13 5 -11 0 -14 -3 -6 -6z"/>
<path d="M6225 3269 c-9 -14 -2 -20 14 -10 8 6 9 11 3 15 -6 3 -14 1 -17 -5z"/>
<path d="M6010 3250 c0 -5 4 -10 9 -10 6 0 13 5 16 10 3 6 -1 10 -9 10 -9 0
-16 -4 -16 -10z"/>
<path d="M6290 3250 c0 -5 5 -10 10 -10 6 0 10 5 10 10 0 6 -4 10 -10 10 -5 0
-10 -4 -10 -10z"/>
<path d="M6050 3221 c0 -5 9 -11 19 -14 14 -3 18 -1 14 9 -6 15 -33 19 -33 5z"/>
<path d="M6140 3222 c0 -5 6 -16 13 -27 16 -20 33 -5 23 20 -6 16 -36 21 -36
7z"/>
<path d="M6271 3191 c-10 -7 -10 -10 -1 -16 6 -4 16 -3 22 3 13 13 -4 23 -21
13z"/>
<path d="M6105 3159 c-4 -6 -5 -13 -2 -16 7 -7 27 6 27 18 0 12 -17 12 -25 -2z"/>
<path d="M6182 3159 c2 -6 8 -10 13 -10 5 0 11 4 13 10 2 6 -4 11 -13 11 -9 0
-15 -5 -13 -11z"/>
<path d="M6343 3126 c-26 -12 -30 -26 -9 -26 13 0 43 28 35 33 -2 2 -14 -2
-26 -7z"/>
<path d="M6260 3120 c0 -5 4 -10 9 -10 6 0 13 5 16 10 3 6 -1 10 -9 10 -9 0
-16 -4 -16 -10z"/>
<path d="M6180 3080 c0 -5 4 -10 9 -10 6 0 13 5 16 10 3 6 -1 10 -9 10 -9 0
-16 -4 -16 -10z"/>
<path d="M6220 3070 c0 -5 7 -10 15 -10 8 0 15 5 15 10 0 6 -7 10 -15 10 -8 0
-15 -4 -15 -10z"/>
<path d="M6397 3053 c-14 -13 -6 -24 15 -21 27 4 36 28 11 28 -11 0 -23 -3
-26 -7z"/>
<path d="M6315 3040 c-3 -5 1 -13 10 -16 22 -9 29 1 11 15 -10 8 -16 9 -21 1z"/>
<path d="M6240 3020 c0 -5 5 -10 10 -10 6 0 10 5 10 10 0 6 -4 10 -10 10 -5 0
-10 -4 -10 -10z"/>
<path d="M6285 2981 c-6 -11 9 -23 19 -14 9 9 7 23 -3 23 -6 0 -12 -4 -16 -9z"/>
<path d="M6440 2980 c-8 -5 -11 -12 -7 -16 4 -4 13 -2 19 4 15 15 7 24 -12 12z"/>
<path d="M6475 2980 c3 -5 10 -10 16 -10 5 0 9 5 9 10 0 6 -7 10 -16 10 -8 0
-12 -4 -9 -10z"/>
<path d="M6345 2940 c-3 -5 3 -10 15 -10 12 0 18 5 15 10 -3 6 -10 10 -15 10
-5 0 -12 -4 -15 -10z"/>
<path d="M6401 2919 c-7 -19 -5 -27 12 -41 12 -10 30 -18 40 -18 9 0 17 -7 17
-15 0 -8 -5 -15 -12 -15 -6 0 -9 -2 -6 -5 3 -3 18 2 34 10 28 15 28 15 7 21
-23 6 -37 29 -27 45 3 5 0 9 -7 9 -7 0 -21 7 -31 16 -16 16 -18 15 -27 -7z
m39 -29 c0 -5 -2 -10 -4 -10 -3 0 -8 5 -11 10 -3 6 -1 10 4 10 6 0 11 -4 11
-10z"/>
<path d="M6480 2920 c0 -5 7 -10 16 -10 8 0 12 5 9 10 -3 6 -10 10 -16 10 -5
0 -9 -4 -9 -10z"/>
<path d="M6540 2877 c0 -14 -7 -30 -15 -37 -8 -7 -12 -16 -9 -21 9 -16 20 -10
35 19 8 15 18 30 23 33 5 4 -1 12 -13 18 -19 10 -21 9 -21 -12z"/>
<path d="M6545 2796 c-18 -8 -25 -15 -18 -19 14 -9 63 2 63 13 0 16 -15 18
-45 6z"/>
<path d="M6600 2754 c-14 -36 -14 -36 32 -32 51 4 57 18 19 41 -38 22 -40 22
-51 -9z"/>
<path d="M6690 2675 c0 -8 2 -15 4 -15 2 0 12 -3 21 -7 15 -5 16 -3 6 15 -13
25 -31 29 -31 7z"/>
<path d="M3950 4178 c0 -24 40 -55 65 -50 31 6 33 22 2 22 -12 0 -28 9 -35 20
-13 22 -32 27 -32 8z"/>
<path d="M4090 4099 c0 -6 -9 -8 -20 -4 -14 5 -20 2 -20 -9 0 -10 -9 -16 -25
-16 -16 0 -25 -6 -25 -16 0 -12 6 -15 21 -11 12 3 32 1 45 -5 29 -13 42 -4 24
17 -10 12 -8 16 15 25 14 5 23 14 20 20 -8 13 -35 13 -35 -1z"/>
<path d="M3945 4090 c3 -5 8 -10 11 -10 2 0 4 5 4 10 0 6 -5 10 -11 10 -5 0
-7 -4 -4 -10z"/>
<path d="M4154 4066 c-11 -6 -19 -17 -16 -24 4 -14 32 -16 32 -2 0 6 10 10 21
10 18 0 19 2 9 15 -14 17 -17 17 -46 1z"/>
<path d="M3960 4050 c0 -5 5 -10 10 -10 6 0 10 5 10 10 0 6 -4 10 -10 10 -5 0
-10 -4 -10 -10z"/>
<path d="M4707 3794 c-14 -15 -6 -34 14 -34 14 0 19 5 17 17 -3 18 -20 27 -31
17z"/>
<path d="M4772 3653 c2 -10 10 -18 18 -18 8 0 16 8 18 18 2 12 -3 17 -18 17
-15 0 -20 -5 -18 -17z"/>
<path d="M4843 3534 c-7 -18 17 -38 31 -24 11 11 1 40 -14 40 -6 0 -13 -7 -17
-16z"/>
<path d="M4915 3410 c-8 -14 3 -30 21 -30 8 0 14 9 14 20 0 21 -24 28 -35 10z"/>
<path d="M4991 3291 c-15 -10 -8 -41 9 -41 15 0 25 29 14 40 -5 5 -15 5 -23 1z"/>
<path d="M5055 3160 c-4 -7 -3 -16 3 -22 14 -14 45 -2 40 15 -6 16 -34 21 -43
7z"/>
<path d="M5127 3033 c-3 -5 -2 -15 3 -22 10 -17 43 -6 38 12 -6 15 -34 22 -41
10z"/>
<path d="M5843 3024 c-7 -18 17 -38 31 -24 11 11 1 40 -14 40 -6 0 -13 -7 -17
-16z"/>
<path d="M5203 2904 c-8 -21 13 -42 28 -27 13 13 5 43 -11 43 -6 0 -13 -7 -17
-16z"/>
<path d="M5777 2904 c-14 -15 -6 -34 14 -34 14 0 19 5 17 17 -3 18 -20 27 -31
17z"/>
<path d="M5277 2784 c-14 -14 -7 -35 11 -32 9 2 17 10 17 17 0 16 -18 25 -28
15z"/>
<path d="M5696 2772 c-2 -4 -1 -14 4 -22 7 -11 11 -11 24 -1 9 7 13 17 10 22
-7 11 -31 12 -38 1z"/>
<path d="M4087 2736 c-7 -19 18 -40 39 -32 8 3 14 14 12 23 -4 22 -43 29 -51
9z"/>
<path d="M4262 2688 c2 -15 10 -23 23 -23 30 0 27 39 -3 43 -20 3 -23 0 -20
-20z"/>
<path d="M4434 2655 c-4 -9 -2 -21 4 -27 15 -15 44 -1 40 19 -4 23 -36 29 -44
8z"/>
<path d="M5340 2645 c0 -8 9 -15 20 -15 11 0 20 7 20 15 0 8 -9 15 -20 15 -11
0 -20 -7 -20 -15z"/>
<path d="M5625 2650 c-8 -14 3 -30 21 -30 8 0 14 9 14 20 0 21 -24 28 -35 10z"/>
<path d="M6427 2634 c-12 -12 -8 -42 6 -47 21 -8 39 8 35 29 -3 19 -29 30 -41
18z"/>
<path d="M4603 2614 c-3 -8 -1 -20 5 -26 16 -16 42 -2 42 22 0 24 -38 28 -47
4z"/>
<path d="M6254 2585 c-4 -9 -2 -21 4 -27 15 -15 44 -1 40 19 -4 23 -36 29 -44
8z"/>
<path d="M4778 2578 c-8 -21 2 -38 22 -38 19 0 34 25 24 41 -8 13 -41 11 -46
-3z"/>
<path d="M6094 2545 c-4 -9 -2 -21 4 -27 15 -15 44 -1 40 19 -4 23 -36 29 -44
8z"/>
<path d="M4954 2535 c-4 -9 -2 -21 4 -27 15 -15 44 -1 40 19 -4 23 -36 29 -44
8z"/>
<path d="M5410 2526 c0 -10 9 -16 21 -16 24 0 21 23 -4 28 -10 2 -17 -3 -17
-12z"/>
<path d="M5554 2529 c-10 -17 13 -36 27 -22 12 12 4 33 -11 33 -5 0 -12 -5
-16 -11z"/>
<path d="M5941 2521 c-19 -12 -6 -43 16 -39 10 2 18 12 18 22 0 22 -14 29 -34
17z"/>
<path d="M5127 2497 c-8 -21 8 -39 29 -35 27 5 25 42 -2 46 -12 2 -24 -3 -27
-11z"/>
<path d="M5780 2471 c0 -19 23 -35 34 -24 14 15 5 43 -14 43 -13 0 -20 -7 -20
-19z"/>
<path d="M5304 2455 c-8 -19 3 -35 26 -35 22 0 33 23 17 39 -15 15 -37 14 -43
-4z"/>
<path d="M5633 2444 c-8 -21 13 -42 28 -27 13 13 5 43 -11 43 -6 0 -13 -7 -17
-16z"/>
<path d="M5484 2416 c-9 -24 4 -48 23 -44 12 2 18 12 18 28 0 29 -32 41 -41
16z"/>
<path d="M5487 2314 c-4 -4 -7 -16 -7 -26 0 -14 6 -19 23 -16 14 2 22 10 22
23 0 20 -25 32 -38 19z"/>
<path d="M5474 2129 c-8 -14 21 -43 35 -35 19 12 13 46 -8 46 -11 0 -23 -5
-27 -11z"/>
<path d="M5474 1955 c-4 -9 -2 -21 4 -27 15 -15 44 -1 40 19 -4 23 -36 29 -44
8z"/>
<path d="M5472 1788 c-13 -13 2 -38 23 -38 18 0 26 25 12 39 -14 14 -20 14
-35 -1z"/>
<path d="M5467 1617 c-3 -8 -2 -20 3 -27 11 -18 42 -4 38 17 -4 22 -34 29 -41
10z"/>
<path d="M5465 1450 c-4 -7 -3 -16 3 -22 14 -14 45 -2 40 15 -6 16 -34 21 -43
7z"/>
<path d="M5467 1294 c-9 -10 2 -24 19 -24 8 0 14 7 14 15 0 15 -21 21 -33 9z"/>
<path d="M5463 1174 c-8 -21 13 -42 28 -27 13 13 5 43 -11 43 -6 0 -13 -7 -17
-16z"/>
<path d="M1845 3301 c-8 -15 3 -31 21 -31 9 0 14 7 12 17 -4 20 -24 28 -33 14z"/>
<path d="M1980 3255 c0 -18 24 -30 39 -21 16 10 1 36 -20 36 -10 0 -19 -7 -19
-15z"/>
<path d="M2117 3233 c-3 -5 -2 -15 3 -22 10 -17 43 -6 38 12 -6 15 -34 22 -41
10z"/>
<path d="M2255 3191 c-9 -16 3 -31 26 -31 14 0 19 6 17 17 -4 20 -33 29 -43
14z"/>
<path d="M2424 3148 c-10 -17 26 -40 42 -27 7 6 10 17 7 25 -6 17 -39 19 -49
2z"/>
<path d="M2593 3104 c-4 -11 1 -22 12 -30 22 -16 39 -5 33 22 -4 25 -36 30
-45 8z"/>
<path d="M2761 3061 c-17 -11 -7 -41 13 -41 22 0 30 20 15 36 -9 8 -19 10 -28
5z"/>
<path d="M2914 3015 c-7 -18 3 -35 21 -35 21 0 28 19 15 35 -16 19 -29 19 -36
0z"/>
<path d="M3074 2975 c-4 -9 -2 -21 4 -27 15 -15 44 -1 40 19 -4 23 -36 29 -44
8z"/>
<path d="M3242 2928 c4 -27 33 -36 42 -13 8 22 -1 35 -25 35 -15 0 -20 -6 -17
-22z"/>
<path d="M3404 2899 c-3 -6 0 -18 9 -26 18 -18 37 -9 37 18 0 21 -34 27 -46 8z"/>
<path d="M3573 2854 c-3 -8 -1 -20 5 -26 16 -16 42 -2 42 22 0 24 -38 28 -47
4z"/>
<path d="M3743 2814 c-3 -8 -1 -20 5 -26 16 -16 42 -2 42 22 0 24 -38 28 -47
4z"/>
<path d="M4034 3925 c3 -9 6 -19 6 -21 0 -2 7 -4 16 -4 22 0 13 34 -10 38 -14
3 -17 0 -12 -13z"/>
<path d="M4115 3920 c-19 -8 -19 -9 3 -9 12 -1 22 4 22 9 0 6 -1 10 -2 9 -2 0
-12 -4 -23 -9z"/>
<path d="M4287 3899 c-13 -18 -19 -19 -53 -10 -49 14 -74 14 -74 1 0 -5 8 -10
18 -10 18 0 45 -34 35 -44 -4 -3 -15 -6 -25 -6 -10 0 -18 -7 -18 -15 0 -17 16
-20 26 -4 3 6 14 9 24 6 22 -6 33 16 17 32 -8 8 -6 11 9 11 28 0 74 23 74 37
0 22 -19 23 -33 2z"/>
<path d="M4337 3913 c-12 -11 -8 -23 8 -23 8 0 15 7 15 15 0 16 -12 20 -23 8z"/>
<path d="M4006 3896 c3 -9 11 -16 16 -16 13 0 5 23 -10 28 -7 2 -10 -2 -6 -12z"/>
<path d="M4085 3881 c-6 -11 9 -23 19 -14 9 9 7 23 -3 23 -6 0 -12 -4 -16 -9z"/>
<path d="M4317 3873 c-12 -11 -8 -23 8 -23 8 0 15 7 15 15 0 16 -12 20 -23 8z"/>
<path d="M4357 3874 c-8 -8 1 -24 14 -24 5 0 9 7 9 15 0 15 -12 20 -23 9z"/>
<path d="M4130 3830 c0 -5 5 -10 11 -10 5 0 7 5 4 10 -3 6 -8 10 -11 10 -2 0
-4 -4 -4 -10z"/>
<path d="M4066 3815 c-11 -8 -16 -21 -13 -30 9 -21 20 -19 35 6 17 27 3 42
-22 24z"/>
<path d="M4290 3812 c0 -10 38 -42 51 -42 14 0 -23 49 -38 50 -7 0 -13 -3 -13
-8z"/>
<path d="M4360 3786 c0 -9 7 -16 16 -16 9 0 14 5 12 12 -6 18 -28 21 -28 4z"/>
<path d="M4240 3760 c0 -13 7 -20 19 -20 14 0 18 5 14 20 -3 11 -12 20 -19 20
-8 0 -14 -9 -14 -20z"/>
<path d="M4165 3763 c-43 -9 -46 -12 -35 -33 9 -17 14 -19 26 -10 7 7 11 17 7
23 -3 5 -2 7 3 4 6 -3 16 -2 23 2 17 11 2 19 -24 14z"/>
<path d="M4385 3750 c-9 -15 -1 -23 21 -18 15 3 16 4 1 16 -11 9 -17 10 -22 2z"/>
<path d="M4296 3743 c-11 -11 -6 -23 8 -23 8 0 17 4 20 9 7 10 -19 23 -28 14z"/>
<path d="M4110 3711 c0 -5 5 -13 10 -16 6 -3 10 -2 10 4 0 5 -4 13 -10 16 -5
3 -10 2 -10 -4z"/>
<path d="M4200 3700 c0 -5 7 -10 16 -10 8 0 12 5 9 10 -3 6 -10 10 -16 10 -5
0 -9 -4 -9 -10z"/>
<path d="M4285 3699 c-10 -15 3 -25 16 -12 7 7 7 13 1 17 -6 3 -14 1 -17 -5z"/>
<path d="M4356 3703 c-10 -10 5 -23 24 -23 24 0 37 -20 20 -30 -7 -4 -10 -12
-6 -18 10 -17 54 9 49 29 -5 17 -77 52 -87 42z"/>
<path d="M4200 3640 c-8 -15 -8 -20 3 -20 14 0 37 19 37 32 0 16 -30 7 -40
-12z"/>
<path d="M4150 3630 c0 -5 7 -10 16 -10 8 0 12 5 9 10 -3 6 -10 10 -16 10 -5
0 -9 -4 -9 -10z"/>
<path d="M4335 3631 c-6 -11 9 -23 19 -14 9 9 7 23 -3 23 -6 0 -12 -4 -16 -9z"/>
<path d="M4260 3620 c0 -5 7 -10 15 -10 8 0 15 5 15 10 0 6 -7 10 -15 10 -8 0
-15 -4 -15 -10z"/>
<path d="M4445 3600 c-3 -5 1 -10 9 -10 9 0 16 5 16 10 0 6 -4 10 -9 10 -6 0
-13 -4 -16 -10z"/>
<path d="M4200 3575 c7 -8 17 -15 22 -15 6 0 5 7 -2 15 -7 8 -17 15 -22 15 -6
0 -5 -7 2 -15z"/>
<path d="M4387 3574 c-16 -9 -26 -18 -24 -21 3 -3 12 -1 19 3 7 5 21 7 31 6
10 -2 17 3 17 12 0 20 -7 19 -43 0z"/>
<path d="M4240 3565 c0 -12 6 -16 20 -12 11 3 22 1 25 -4 3 -4 13 -5 21 -2 20
8 6 19 -33 28 -27 5 -33 4 -33 -10z"/>
<path d="M4475 3531 c4 -13 0 -20 -16 -24 -31 -8 -13 -28 19 -21 35 9 34 6 19
37 -14 30 -31 37 -22 8z"/>
<path d="M4410 3524 c0 -9 7 -14 17 -12 25 5 28 28 4 28 -12 0 -21 -6 -21 -16z"/>
<path d="M4325 3521 c-7 -12 12 -24 25 -16 11 7 4 25 -10 25 -5 0 -11 -4 -15
-9z"/>
<path d="M4256 3513 c-11 -11 -6 -23 8 -23 8 0 16 -6 19 -12 3 -10 8 -10 16
-2 9 8 6 15 -12 27 -14 9 -27 13 -31 10z"/>
<path d="M4350 3474 c-6 -15 -8 -29 -6 -32 8 -8 36 19 36 34 0 26 -20 25 -30
-2z"/>
<path d="M4400 3460 c0 -5 7 -10 15 -10 8 0 15 5 15 10 0 6 -7 10 -15 10 -8 0
-15 -4 -15 -10z"/>
<path d="M4496 3435 c4 -17 2 -25 -7 -25 -10 0 -10 -3 -2 -11 13 -13 36 -2 27
13 -4 6 0 14 7 19 12 8 12 11 -1 19 -24 16 -31 12 -24 -15z"/>
<path d="M4310 3431 c0 -13 37 -24 52 -15 8 5 6 10 -8 15 -27 11 -44 11 -44 0z"/>
<path d="M4435 3419 c-4 -6 -5 -13 -2 -16 7 -7 27 6 27 18 0 12 -17 12 -25 -2z"/>
<path d="M4396 3402 c-3 -6 -1 -14 5 -17 15 -10 25 3 12 16 -7 7 -13 7 -17 1z"/>
<path d="M4360 3381 c0 -26 37 -52 66 -46 16 3 23 2 17 -1 -18 -8 -16 -24 2
-24 8 0 15 2 15 4 0 2 3 11 6 19 5 14 -18 26 -58 32 -10 1 -24 8 -33 15 -11 9
-15 9 -15 1z"/>
<path d="M4530 3380 c0 -5 -7 -10 -15 -10 -8 0 -15 -7 -15 -15 0 -8 5 -15 10
-15 6 0 13 7 16 15 4 8 12 15 20 15 8 0 14 5 14 10 0 6 -7 10 -15 10 -8 0 -15
-4 -15 -10z"/>
<path d="M4540 3319 c0 -6 -12 -9 -27 -7 -21 2 -29 -2 -31 -16 -3 -16 0 -18
19 -12 13 4 35 10 49 13 51 10 56 13 40 23 -20 13 -50 12 -50 -1z"/>
<path d="M4565 3280 c-3 -5 -2 -15 1 -23 4 -11 -2 -16 -23 -19 -20 -2 -28 -8
-28 -23 0 -12 6 -19 14 -17 7 2 21 -4 31 -13 15 -14 18 -14 30 0 7 8 20 15 30
15 10 0 23 7 30 15 13 15 10 17 -25 19 -28 1 -31 20 -3 27 17 5 19 8 8 12 -33
12 -60 15 -65 7z"/>
<path d="M4443 3263 c9 -9 19 -14 23 -11 10 10 -6 28 -24 28 -15 0 -15 -1 1
-17z"/>
<path d="M4516 3272 c-3 -6 -1 -14 5 -17 15 -10 25 3 12 16 -7 7 -13 7 -17 1z"/>
<path d="M4653 3199 c-17 -18 -16 -29 3 -29 8 0 12 -5 9 -10 -4 -6 -10 -8 -15
-5 -9 6 -21 -20 -13 -29 4 -3 15 -6 25 -6 20 0 23 -12 8 -41 -8 -15 -7 -19 4
-19 9 0 20 -9 26 -20 6 -10 26 -27 45 -36 19 -9 32 -20 29 -25 -3 -5 0 -9 6
-9 7 0 10 6 7 14 -3 7 0 19 6 25 8 8 7 11 -5 11 -9 0 -19 12 -23 28 -3 15 -19
39 -35 53 -15 14 -36 45 -46 68 -15 34 -21 40 -31 30z m86 -135 c10 -22 9 -25
-6 -22 -10 2 -19 13 -21 26 -5 30 12 28 27 -4z"/>
<path d="M4583 3165 c-26 -14 -20 -25 14 -25 13 0 23 6 23 14 0 21 -12 24 -37
11z"/>
<path d="M4621 3099 c8 -16 14 -18 22 -10 9 9 8 14 -3 21 -24 16 -31 11 -19
-11z"/>
<path d="M4820 2961 c0 -12 26 -32 33 -25 9 10 -4 34 -19 34 -8 0 -14 -4 -14
-9z"/>
<path d="M4920 3790 c8 -5 20 -10 25 -10 6 0 3 5 -5 10 -8 5 -19 10 -25 10 -5
0 -3 -5 5 -10z"/>
<path d="M4976 3765 c10 -8 26 -14 34 -14 11 0 10 3 -4 14 -11 8 -27 15 -35
15 -11 0 -10 -4 5 -15z"/>
<path d="M5024 3875 c11 -8 24 -15 30 -15 5 0 1 7 -10 15 -10 8 -23 14 -29 14
-5 0 -1 -6 9 -14z"/>
<path d="M9083 3204 c-8 -21 13 -42 28 -27 13 13 5 43 -11 43 -6 0 -13 -7 -17
-16z"/>
<path d="M8910 3161 c0 -27 19 -36 37 -18 18 18 9 37 -18 37 -12 0 -19 -7 -19
-19z"/>
<path d="M8741 3140 c-19 -11 -9 -45 14 -45 13 0 21 8 23 21 3 23 -17 37 -37
24z"/>
<path d="M8554 3095 c-9 -23 4 -47 23 -43 22 4 30 38 11 49 -19 13 -28 11 -34
-6z"/>
<path d="M8374 3056 c-9 -24 4 -48 23 -44 12 2 18 12 18 28 0 29 -32 41 -41
16z"/>
<path d="M8194 3016 c-9 -24 4 -48 23 -44 12 2 18 12 18 28 0 29 -32 41 -41
16z"/>
<path d="M8017 2984 c-13 -13 -7 -42 10 -48 21 -8 36 6 31 30 -3 19 -29 30
-41 18z"/>
<path d="M7840 2935 c-15 -18 -5 -35 20 -35 10 0 22 5 25 10 7 11 -12 40 -25
40 -4 0 -13 -7 -20 -15z"/>
<path d="M7664 2895 c-4 -9 -2 -21 4 -27 15 -15 44 -1 40 19 -4 23 -36 29 -44
8z"/>
<path d="M7490 2845 c0 -22 4 -26 23 -23 14 2 22 10 22 23 0 13 -8 21 -22 23
-19 3 -23 -1 -23 -23z"/>
<path d="M7313 2814 c-3 -8 -1 -20 5 -26 16 -16 42 -2 42 22 0 24 -38 28 -47
4z"/>
</g>
</svg>
